<?xml version="1.0" standalone="no"?>
<!DOCTYPE svg PUBLIC "-//W3C//DTD SVG 20010904//EN"
 "http://www.w3.org/TR/2001/REC-SVG-20010904/DTD/svg10.dtd">
<svg version="1.0" xmlns="http://www.w3.org/2000/svg"
 width="260.000000pt" height="260.000000pt" viewBox="0 0 260.000000 260.000000"
 preserveAspectRatio="xMidYMid meet">
<metadata>
Created by potrace 1.11, written by Peter Selinger 2001-2013
</metadata>
<g transform="translate(0.000000,260.000000) scale(0.100000,-0.100000)"
fill="#000000" stroke="none">
<path d="M990 2540 l0 -60 -55 0 -55 0 0 -125 0 -125 55 0 55 0 0 -185 0 -185
-55 0 -55 0 0 -65 0 -65 -195 0 -195 0 0 -60 0 -60 -60 0 -60 0 0 -620 0 -620
60 0 60 0 0 -125 0 -125 70 0 70 0 0 -60 0 -60 55 0 55 0 0 60 0 60 -55 0 -55
0 0 125 0 125 -70 0 -70 0 0 245 0 245 125 0 125 0 0 70 0 70 70 0 70 0 0 -70
0 -70 180 0 180 0 0 -60 0 -60 240 0 240 0 0 60 0 60 -240 0 -240 0 0 125 0
125 370 0 370 0 0 -310 0 -310 -60 0 -60 0 0 -130 0 -130 -70 0 -70 0 0 -55 0
-55 -55 0 -55 0 0 -60 0 -60 55 0 55 0 0 60 0 60 70 0 70 0 0 55 0 55 60 0 60
0 0 130 0 130 65 0 65 0 0 310 0 310 -65 0 -65 0 0 310 0 310 65 0 65 0 0 125
0 125 60 0 60 0 0 250 0 250 -60 0 -60 0 0 60 0 60 -125 0 -125 0 0 -60 0 -60
-70 0 -70 0 0 -195 0 -195 -55 0 -55 0 0 -115 0 -115 -60 0 -60 0 0 185 0 185
-65 0 -65 0 0 125 0 125 -60 0 -60 0 0 60 0 60 -125 0 -125 0 0 -60z m250
-185 l0 -125 60 0 60 0 0 -185 0 -185 65 0 65 0 0 -190 0 -190 60 0 60 0 0
125 0 125 55 0 55 0 0 180 0 180 70 0 70 0 0 195 0 195 125 0 125 0 0 -250 0
-250 -65 0 -65 0 0 -125 0 -125 -60 0 -60 0 0 -240 0 -240 -310 0 -310 0 0
305 0 305 -65 0 -65 0 0 185 0 185 -60 0 -60 0 0 125 0 125 125 0 125 0 0
-125z m-130 -990 l0 -365 -115 0 -115 0 0 365 0 365 115 0 115 0 0 -365z
m-370 -60 l0 -305 -125 0 -125 0 0 305 0 305 125 0 125 0 0 -305z"/>
</g>
</svg>
