<?xml version="1.0" encoding="utf-8"?>
<!-- Generator: Adobe Illustrator 16.0.0, SVG Export Plug-In . SVG Version: 6.00 Build 0)  -->
<!DOCTYPE svg PUBLIC "-//W3C//DTD SVG 1.1//EN" "http://www.w3.org/Graphics/SVG/1.1/DTD/svg11.dtd">
<svg version="1.1" id="paper" xmlns="http://www.w3.org/2000/svg" xmlns:xlink="http://www.w3.org/1999/xlink" x="0px" y="0px"
	 width="542px" height="1159px" viewBox="0 0 542 1159" enable-background="new 0 0 542 1159" xml:space="preserve">
<g>
	<rect x="504" y="617.5" fill="#D8A482" width="38" height="38"/>
	<rect x="504" y="578.5" fill="#D8A482" width="38" height="39"/>
	<rect x="504" y="539.5" fill="#D8A482" width="38" height="39"/>
	<rect x="504" y="500.5" fill="#D8A482" width="38" height="39"/>
	<rect x="504" y="462.5" fill="#D8A482" width="38" height="38"/>
	<rect x="465" y="694.5" fill="#D8A482" width="39" height="39"/>
	<rect x="465" y="655.5" fill="#D8A482" width="39" height="39"/>
	<rect x="465" y="617.5" fill="#FBCEA6" width="39" height="38"/>
	<rect x="465" y="578.5" fill="#FCDCBF" width="39" height="39"/>
	<rect x="465" y="539.5" fill="#FCDCBF" width="39" height="39"/>
	<rect x="465" y="500.5" fill="#FCDCBF" width="39" height="39"/>
	<rect x="465" y="462.5" fill="#FCDCBF" width="39" height="38"/>
	<rect x="465" y="423.5" fill="#D8A482" width="39" height="39"/>
	<rect x="465" y="384.5" fill="#D8A482" width="39" height="39"/>
	<rect x="465" y="346.5" fill="#D8A482" width="39" height="38"/>
	<rect x="465" y="307.5" fill="#D8A482" width="39" height="39"/>
	<rect x="465" y="268.5" fill="#D8A482" width="39" height="39"/>
	<rect x="465" y="229.5" fill="#D8A482" width="39" height="39"/>
	<rect x="465" y="191.5" fill="#D8A482" width="39" height="38"/>
	<rect x="465" y="152.5" fill="#D8A482" width="39" height="39"/>
	<rect x="465" y="113.5" fill="#D8A482" width="39" height="39"/>
	<rect x="426" y="733.5" fill="#D8A482" width="39" height="38"/>
	<rect x="426" y="694.5" fill="#FBCEA6" width="39" height="39"/>
	<rect x="426" y="655.5" fill="#FCDCBF" width="39" height="39"/>
	<rect x="426" y="617.5" fill="#FCDCBF" width="39" height="38"/>
	<rect x="426" y="578.5" fill="#FCDCBF" width="39" height="39"/>
	<rect x="426" y="539.5" fill="#FCDCBF" width="39" height="39"/>
	<rect x="426" y="500.5" fill="#FCDCBF" width="39" height="39"/>
	<rect x="426" y="462.5" fill="#FCDCBF" width="39" height="38"/>
	<rect x="426" y="423.5" fill="#D8A482" width="39" height="39"/>
	<rect x="426" y="384.5" fill="#FBCEA6" width="39" height="39"/>
	<rect x="426" y="346.5" fill="#FCDCBF" width="39" height="38"/>
	<rect x="426" y="307.5" fill="#FCDCBF" width="39" height="39"/>
	<rect x="426" y="268.5" fill="#FCDCBF" width="39" height="39"/>
	<rect x="426" y="229.5" fill="#FCDCBF" width="39" height="39"/>
	<rect x="426" y="191.5" fill="#FCDCBF" width="39" height="38"/>
	<rect x="426" y="152.5" fill="#FCDCBF" width="39" height="39"/>
	<rect x="426" y="113.5" fill="#FCDCBF" width="39" height="39"/>
	<rect x="426" y="75.5" fill="#D8A482" width="39" height="38"/>
	<polygon fill="#D8A482" points="426,1120.5 388,1120.5 388,1158.5 388,1159.5 426,1159.5 426,1158.5 	"/>
	<rect x="388" y="1081.5" fill="#D8A482" width="38" height="39"/>
	<rect x="388" y="1042.5" fill="#D8A482" width="38" height="39"/>
	<rect x="388" y="1004.5" fill="#D8A482" width="38" height="38"/>
	<rect x="388" y="965.5" fill="#D8A482" width="38" height="39"/>
	<rect x="388" y="926.5" fill="#D8A482" width="38" height="39"/>
	<rect x="388" y="888.5" fill="#D8A482" width="38" height="38"/>
	<rect x="388" y="849.5" fill="#D8A482" width="38" height="39"/>
	<rect x="388" y="810.5" fill="#D8A482" width="38" height="39"/>
	<rect x="388" y="771.5" fill="#D8A482" width="38" height="39"/>
	<rect x="388" y="733.5" fill="#FBCEA6" width="38" height="38"/>
	<rect x="388" y="694.5" fill="#FCDCBF" width="38" height="39"/>
	<rect x="388" y="655.5" fill="#FCDCBF" width="38" height="39"/>
	<rect x="388" y="617.5" fill="#FCDCBF" width="38" height="38"/>
	<rect x="388" y="578.5" fill="#FBCEA6" width="38" height="39"/>
	<rect x="388" y="539.5" fill="#D8A482" width="38" height="39"/>
	<rect x="388" y="500.5" fill="#FCDCBF" width="38" height="39"/>
	<rect x="388" y="462.5" fill="#FCDCBF" width="38" height="38"/>
	<rect x="388" y="423.5" fill="#D8A482" width="38" height="39"/>
	<rect x="388" y="384.5" fill="#FBCEA6" width="38" height="39"/>
	<rect x="388" y="346.5" fill="#FCDCBF" width="38" height="38"/>
	<rect x="388" y="307.5" fill="#FCDCBF" width="38" height="39"/>
	<rect x="388" y="268.5" fill="#FCDCBF" width="38" height="39"/>
	<rect x="388" y="229.5" fill="#FCDCBF" width="38" height="39"/>
	<rect x="388" y="191.5" fill="#FCDCBF" width="38" height="38"/>
	<rect x="388" y="152.5" fill="#FCDCBF" width="38" height="39"/>
	<rect x="388" y="113.5" fill="#FCDCBF" width="38" height="39"/>
	<rect x="388" y="75.5" fill="#D8A482" width="38" height="38"/>
	<polygon fill="#FBCEA6" points="388,1120.5 349,1120.5 349,1158.5 349,1159.5 388,1159.5 388,1158.5 	"/>
	<rect x="349" y="1081.5" fill="#FBCEA6" width="39" height="39"/>
	<rect x="349" y="1042.5" fill="#FBCEA6" width="39" height="39"/>
	<rect x="349" y="1004.5" fill="#FBCEA6" width="39" height="38"/>
	<rect x="349" y="965.5" fill="#FBCEA6" width="39" height="39"/>
	<rect x="349" y="926.5" fill="#FBCEA6" width="39" height="39"/>
	<rect x="349" y="888.5" fill="#FBCEA6" width="39" height="38"/>
	<rect x="349" y="849.5" fill="#FBCEA6" width="39" height="39"/>
	<rect x="349" y="810.5" fill="#FBCEA6" width="39" height="39"/>
	<rect x="349" y="771.5" fill="#FBCEA6" width="39" height="39"/>
	<rect x="349" y="733.5" fill="#FCDCBF" width="39" height="38"/>
	<rect x="349" y="694.5" fill="#FCDCBF" width="39" height="39"/>
	<rect x="349" y="655.5" fill="#FCDCBF" width="39" height="39"/>
	<rect x="349" y="617.5" fill="#FCDCBF" width="39" height="38"/>
	<rect x="349" y="578.5" fill="#FBCEA6" width="39" height="39"/>
	<rect x="349" y="539.5" fill="#D8A482" width="39" height="39"/>
	<rect x="349" y="500.5" fill="#FCDCBF" width="39" height="39"/>
	<rect x="349" y="462.5" fill="#FCDCBF" width="39" height="38"/>
	<rect x="349" y="423.5" fill="#D8A482" width="39" height="39"/>
	<rect x="349" y="384.5" fill="#FBCEA6" width="39" height="39"/>
	<rect x="349" y="346.5" fill="#D8A482" width="39" height="38"/>
	<rect x="349" y="307.5" fill="#D8A482" width="39" height="39"/>
	<rect x="349" y="268.5" fill="#D8A482" width="39" height="39"/>
	<rect x="349" y="229.5" fill="#D8A482" width="39" height="39"/>
	<rect x="349" y="191.5" fill="#D8A482" width="39" height="38"/>
	<rect x="349" y="152.5" fill="#D8A482" width="39" height="39"/>
	<rect x="349" y="113.5" fill="#D8A482" width="39" height="39"/>
	<rect x="349" y="75.5" fill="#D8A482" width="39" height="38"/>
	<rect x="349" y="36.5" fill="#D8A482" width="39" height="39"/>
	<polygon fill="#FCDCBF" points="349,1120.5 310,1120.5 310,1158.5 310,1159.5 349,1159.5 349,1158.5 	"/>
	<rect x="310" y="1081.5" fill="#FCDCBF" width="39" height="39"/>
	<rect x="310" y="1042.5" fill="#FCDCBF" width="39" height="39"/>
	<rect x="310" y="1004.5" fill="#FCDCBF" width="39" height="38"/>
	<rect x="310" y="965.5" fill="#FCDCBF" width="39" height="39"/>
	<rect x="310" y="926.5" fill="#FCDCBF" width="39" height="39"/>
	<rect x="310" y="888.5" fill="#FCDCBF" width="39" height="38"/>
	<rect x="310" y="849.5" fill="#FCDCBF" width="39" height="39"/>
	<rect x="310" y="810.5" fill="#FCDCBF" width="39" height="39"/>
	<rect x="310" y="771.5" fill="#FBCEA6" width="39" height="39"/>
	<rect x="310" y="733.5" fill="#FCDCBF" width="39" height="38"/>
	<rect x="310" y="694.5" fill="#FCDCBF" width="39" height="39"/>
	<rect x="310" y="655.5" fill="#FCDCBF" width="39" height="39"/>
	<rect x="310" y="617.5" fill="#FCDCBF" width="39" height="38"/>
	<rect x="310" y="578.5" fill="#FBCEA6" width="39" height="39"/>
	<rect x="310" y="539.5" fill="#D8A482" width="39" height="39"/>
	<rect x="310" y="500.5" fill="#FCDCBF" width="39" height="39"/>
	<rect x="310" y="462.5" fill="#FCDCBF" width="39" height="38"/>
	<rect x="310" y="423.5" fill="#D8A482" width="39" height="39"/>
	<rect x="310" y="384.5" fill="#FBCEA6" width="39" height="39"/>
	<rect x="310" y="346.5" fill="#FCDCBF" width="39" height="38"/>
	<rect x="310" y="307.5" fill="#FCDCBF" width="39" height="39"/>
	<rect x="310" y="268.5" fill="#FCDCBF" width="39" height="39"/>
	<rect x="310" y="229.5" fill="#FCDCBF" width="39" height="39"/>
	<rect x="310" y="191.5" fill="#FCDCBF" width="39" height="38"/>
	<rect x="310" y="152.5" fill="#FCDCBF" width="39" height="39"/>
	<rect x="310" y="113.5" fill="#FCDCBF" width="39" height="39"/>
	<rect x="310" y="75.5" fill="#FCDCBF" width="39" height="38"/>
	<rect x="310" y="36.5" fill="#D8A482" width="39" height="39"/>
	<polygon fill="#FCDCBF" points="310,1120.5 271,1120.5 271,1158.5 271,1159.5 310,1159.5 310,1158.5 	"/>
	<rect x="271" y="1081.5" fill="#FCDCBF" width="39" height="39"/>
	<rect x="271" y="1042.5" fill="#FCDCBF" width="39" height="39"/>
	<rect x="271" y="1004.5" fill="#FCDCBF" width="39" height="38"/>
	<rect x="271" y="965.5" fill="#FCDCBF" width="39" height="39"/>
	<rect x="271" y="926.5" fill="#FCDCBF" width="39" height="39"/>
	<rect x="271" y="888.5" fill="#FCDCBF" width="39" height="38"/>
	<rect x="271" y="849.5" fill="#FCDCBF" width="39" height="39"/>
	<rect x="271" y="810.5" fill="#FCDCBF" width="39" height="39"/>
	<rect x="271" y="771.5" fill="#FBCEA6" width="39" height="39"/>
	<rect x="271" y="733.5" fill="#FCDCBF" width="39" height="38"/>
	<rect x="271" y="694.5" fill="#FCDCBF" width="39" height="39"/>
	<rect x="271" y="655.5" fill="#FCDCBF" width="39" height="39"/>
	<rect x="271" y="617.5" fill="#FCDCBF" width="39" height="38"/>
	<rect x="271" y="578.5" fill="#FBCEA6" width="39" height="39"/>
	<rect x="271" y="539.5" fill="#D8A482" width="39" height="39"/>
	<rect x="271" y="500.5" fill="#FCDCBF" width="39" height="39"/>
	<rect x="271" y="462.5" fill="#FCDCBF" width="39" height="38"/>
	<rect x="271" y="423.5" fill="#D8A482" width="39" height="39"/>
	<rect x="271" y="384.5" fill="#FBCEA6" width="39" height="39"/>
	<rect x="271" y="346.5" fill="#FCDCBF" width="39" height="38"/>
	<rect x="271" y="307.5" fill="#FCDCBF" width="39" height="39"/>
	<rect x="271" y="268.5" fill="#FCDCBF" width="39" height="39"/>
	<rect x="271" y="229.5" fill="#FCDCBF" width="39" height="39"/>
	<rect x="271" y="191.5" fill="#FCDCBF" width="39" height="38"/>
	<rect x="271" y="152.5" fill="#FCDCBF" width="39" height="39"/>
	<rect x="271" y="113.5" fill="#FCDCBF" width="39" height="39"/>
	<rect x="271" y="75.5" fill="#FCDCBF" width="39" height="38"/>
	<rect x="271" y="36.5" fill="#D8A482" width="39" height="39"/>
	<polygon fill="#FCDCBF" points="271,1120.5 233,1120.5 233,1158.5 233,1159.5 271,1159.5 271,1158.5 	"/>
	<rect x="233" y="1081.5" fill="#FCDCBF" width="38" height="39"/>
	<rect x="233" y="1042.5" fill="#FCDCBF" width="38" height="39"/>
	<rect x="233" y="1004.5" fill="#FCDCBF" width="38" height="38"/>
	<rect x="233" y="965.5" fill="#FCDCBF" width="38" height="39"/>
	<rect x="233" y="926.5" fill="#FCDCBF" width="38" height="39"/>
	<rect x="233" y="888.5" fill="#FCDCBF" width="38" height="38"/>
	<rect x="233" y="849.5" fill="#FCDCBF" width="38" height="39"/>
	<rect x="233" y="810.5" fill="#FCDCBF" width="38" height="39"/>
	<rect x="233" y="771.5" fill="#FCDCBF" width="38" height="39"/>
	<rect x="233" y="733.5" fill="#FCDCBF" width="38" height="38"/>
	<rect x="233" y="694.5" fill="#FCDCBF" width="38" height="39"/>
	<rect x="233" y="655.5" fill="#FCDCBF" width="38" height="39"/>
	<rect x="233" y="617.5" fill="#FCDCBF" width="38" height="38"/>
	<rect x="233" y="578.5" fill="#FCDCBF" width="38" height="39"/>
	<rect x="233" y="539.5" fill="#FBCEA6" width="38" height="39"/>
	<rect x="233" y="500.5" fill="#D8A482" width="38" height="39"/>
	<rect x="233" y="462.5" fill="#D8A482" width="38" height="38"/>
	<rect x="233" y="423.5" fill="#D8A482" width="38" height="39"/>
	<rect x="233" y="384.5" fill="#FBCEA6" width="38" height="39"/>
	<rect x="233" y="346.5" fill="#D8A482" width="38" height="38"/>
	<rect x="233" y="307.5" fill="#D8A482" width="38" height="39"/>
	<rect x="233" y="268.5" fill="#D8A482" width="38" height="39"/>
	<rect x="233" y="229.5" fill="#D8A482" width="38" height="39"/>
	<rect x="233" y="191.5" fill="#D8A482" width="38" height="38"/>
	<rect x="233" y="152.5" fill="#D8A482" width="38" height="39"/>
	<rect x="233" y="113.5" fill="#D8A482" width="38" height="39"/>
	<rect x="233" y="75.5" fill="#D8A482" width="38" height="38"/>
	<polygon fill="#FCDCBF" points="233,1120.5 194,1120.5 194,1158.5 194,1159.5 233,1159.5 233,1158.5 	"/>
	<rect x="194" y="1081.5" fill="#FCDCBF" width="39" height="39"/>
	<rect x="194" y="1042.5" fill="#FCDCBF" width="39" height="39"/>
	<rect x="194" y="1004.5" fill="#FCDCBF" width="39" height="38"/>
	<rect x="194" y="965.5" fill="#FCDCBF" width="39" height="39"/>
	<rect x="194" y="926.5" fill="#FCDCBF" width="39" height="39"/>
	<rect x="194" y="888.5" fill="#FCDCBF" width="39" height="38"/>
	<rect x="194" y="849.5" fill="#FCDCBF" width="39" height="39"/>
	<rect x="194" y="810.5" fill="#FCDCBF" width="39" height="39"/>
	<rect x="194" y="771.5" fill="#FCDCBF" width="39" height="39"/>
	<rect x="194" y="733.5" fill="#FCDCBF" width="39" height="38"/>
	<rect x="194" y="694.5" fill="#FCDCBF" width="39" height="39"/>
	<rect x="194" y="655.5" fill="#FCDCBF" width="39" height="39"/>
	<rect x="194" y="617.5" fill="#FCDCBF" width="39" height="38"/>
	<rect x="194" y="578.5" fill="#FCDCBF" width="39" height="39"/>
	<rect x="194" y="539.5" fill="#FBCEA6" width="39" height="39"/>
	<rect x="194" y="500.5" fill="#FBCEA6" width="39" height="39"/>
	<rect x="194" y="462.5" fill="#FBCEA6" width="39" height="38"/>
	<rect x="194" y="423.5" fill="#FBCEA6" width="39" height="39"/>
	<rect x="194" y="384.5" fill="#FCDCBF" width="39" height="39"/>
	<rect x="194" y="346.5" fill="#FCDCBF" width="39" height="38"/>
	<rect x="194" y="307.5" fill="#FCDCBF" width="39" height="39"/>
	<rect x="194" y="268.5" fill="#FCDCBF" width="39" height="39"/>
	<rect x="194" y="229.5" fill="#FCDCBF" width="39" height="39"/>
	<rect x="194" y="191.5" fill="#FCDCBF" width="39" height="38"/>
	<rect x="194" y="152.5" fill="#FCDCBF" width="39" height="39"/>
	<rect x="194" y="113.5" fill="#FCDCBF" width="39" height="39"/>
	<rect x="194" y="75.5" fill="#D8A482" width="39" height="38"/>
	<polygon fill="#FCDCBF" points="194,1120.5 155,1120.5 155,1158.5 155,1159.5 194,1159.5 194,1158.5 	"/>
	<rect x="155" y="1081.5" fill="#FCDCBF" width="39" height="39"/>
	<rect x="155" y="1042.5" fill="#FCDCBF" width="39" height="39"/>
	<rect x="155" y="1004.5" fill="#FCDCBF" width="39" height="38"/>
	<rect x="155" y="965.5" fill="#FCDCBF" width="39" height="39"/>
	<rect x="155" y="926.5" fill="#FCDCBF" width="39" height="39"/>
	<rect x="155" y="888.5" fill="#FCDCBF" width="39" height="38"/>
	<rect x="155" y="849.5" fill="#FCDCBF" width="39" height="39"/>
	<rect x="155" y="810.5" fill="#FCDCBF" width="39" height="39"/>
	<rect x="155" y="771.5" fill="#FBCEA6" width="39" height="39"/>
	<rect x="155" y="733.5" fill="#FCDCBF" width="39" height="38"/>
	<rect x="155" y="694.5" fill="#FCDCBF" width="39" height="39"/>
	<rect x="155" y="655.5" fill="#FCDCBF" width="39" height="39"/>
	<rect x="155" y="617.5" fill="#FCDCBF" width="39" height="38"/>
	<rect x="155" y="578.5" fill="#FCDCBF" width="39" height="39"/>
	<rect x="155" y="539.5" fill="#FCDCBF" width="39" height="39"/>
	<rect x="155" y="500.5" fill="#FCDCBF" width="39" height="39"/>
	<rect x="155" y="462.5" fill="#FCDCBF" width="39" height="38"/>
	<rect x="155" y="423.5" fill="#FCDCBF" width="39" height="39"/>
	<rect x="155" y="384.5" fill="#FCDCBF" width="39" height="39"/>
	<rect x="155" y="346.5" fill="#FCDCBF" width="39" height="38"/>
	<rect x="155" y="307.5" fill="#FCDCBF" width="39" height="39"/>
	<rect x="155" y="268.5" fill="#FCDCBF" width="39" height="39"/>
	<rect x="155" y="229.5" fill="#FCDCBF" width="39" height="39"/>
	<rect x="155" y="191.5" fill="#FCDCBF" width="39" height="38"/>
	<rect x="155" y="152.5" fill="#FCDCBF" width="39" height="39"/>
	<rect x="155" y="113.5" fill="#FCDCBF" width="39" height="39"/>
	<rect x="155" y="75.5" fill="#D8A482" width="39" height="38"/>
	<polygon fill="#FBCEA6" points="155,1120.5 117,1120.5 117,1158.5 117,1159.5 155,1159.5 155,1158.5 	"/>
	<rect x="117" y="1081.5" fill="#FBCEA6" width="38" height="39"/>
	<rect x="117" y="1042.5" fill="#FBCEA6" width="38" height="39"/>
	<rect x="117" y="1004.5" fill="#FBCEA6" width="38" height="38"/>
	<rect x="117" y="965.5" fill="#FBCEA6" width="38" height="39"/>
	<rect x="117" y="926.5" fill="#FBCEA6" width="38" height="39"/>
	<rect x="117" y="888.5" fill="#FBCEA6" width="38" height="38"/>
	<rect x="117" y="849.5" fill="#FBCEA6" width="38" height="39"/>
	<rect x="117" y="810.5" fill="#FBCEA6" width="38" height="39"/>
	<rect x="117" y="771.5" fill="#FBCEA6" width="38" height="39"/>
	<rect x="117" y="733.5" fill="#FCDCBF" width="38" height="38"/>
	<rect x="117" y="694.5" fill="#FCDCBF" width="38" height="39"/>
	<rect x="117" y="655.5" fill="#FCDCBF" width="38" height="39"/>
	<rect x="117" y="617.5" fill="#FCDCBF" width="38" height="38"/>
	<rect x="117" y="578.5" fill="#FCDCBF" width="38" height="39"/>
	<rect x="117" y="539.5" fill="#FCDCBF" width="38" height="39"/>
	<rect x="117" y="500.5" fill="#FCDCBF" width="38" height="39"/>
	<rect x="117" y="462.5" fill="#FCDCBF" width="38" height="38"/>
	<rect x="117" y="423.5" fill="#FCDCBF" width="38" height="39"/>
	<rect x="117" y="384.5" fill="#FCDCBF" width="38" height="39"/>
	<rect x="117" y="346.5" fill="#D8A482" width="38" height="38"/>
	<rect x="117" y="307.5" fill="#D8A482" width="38" height="39"/>
	<rect x="117" y="268.5" fill="#D8A482" width="38" height="39"/>
	<rect x="117" y="229.5" fill="#D8A482" width="38" height="39"/>
	<rect x="117" y="191.5" fill="#D8A482" width="38" height="38"/>
	<rect x="117" y="152.5" fill="#D8A482" width="38" height="39"/>
	<rect x="117" y="113.5" fill="#D8A482" width="38" height="39"/>
	<polygon fill="#D8A482" points="117,1120.5 78,1120.5 78,1158.5 78,1159.5 117,1159.5 117,1158.5 	"/>
	<rect x="78" y="1081.5" fill="#D8A482" width="39" height="39"/>
	<rect x="78" y="1042.5" fill="#D8A482" width="39" height="39"/>
	<rect x="78" y="1004.5" fill="#D8A482" width="39" height="38"/>
	<rect x="78" y="965.5" fill="#D8A482" width="39" height="39"/>
	<rect x="78" y="926.5" fill="#D8A482" width="39" height="39"/>
	<rect x="78" y="888.5" fill="#D8A482" width="39" height="38"/>
	<rect x="78" y="849.5" fill="#D8A482" width="39" height="39"/>
	<rect x="78" y="810.5" fill="#D8A482" width="39" height="39"/>
	<rect x="78" y="771.5" fill="#D8A482" width="39" height="39"/>
	<rect x="78" y="733.5" fill="#FBCEA6" width="39" height="38"/>
	<rect x="78" y="694.5" fill="#FCDCBF" width="39" height="39"/>
	<rect x="78" y="655.5" fill="#FCDCBF" width="39" height="39"/>
	<rect x="78" y="617.5" fill="#FCDCBF" width="39" height="38"/>
	<rect x="78" y="578.5" fill="#FCDCBF" width="39" height="39"/>
	<rect x="78" y="539.5" fill="#FCDCBF" width="39" height="39"/>
	<rect x="78" y="500.5" fill="#FCDCBF" width="39" height="39"/>
	<rect x="78" y="462.5" fill="#FCDCBF" width="39" height="38"/>
	<rect x="78" y="423.5" fill="#FCDCBF" width="39" height="39"/>
	<rect x="78" y="384.5" fill="#FCDCBF" width="39" height="39"/>
	<rect x="78" y="346.5" fill="#FCDCBF" width="39" height="38"/>
	<rect x="78" y="307.5" fill="#FCDCBF" width="39" height="39"/>
	<rect x="78" y="268.5" fill="#FCDCBF" width="39" height="39"/>
	<rect x="78" y="229.5" fill="#FCDCBF" width="39" height="39"/>
	<rect x="78" y="191.5" fill="#FCDCBF" width="39" height="38"/>
	<rect x="78" y="152.5" fill="#D8A482" width="39" height="39"/>
	<rect x="39" y="733.5" fill="#D8A482" width="39" height="38"/>
	<rect x="39" y="694.5" fill="#D8A482" width="39" height="39"/>
	<rect x="39" y="655.5" fill="#FBCEA6" width="39" height="39"/>
	<rect x="39" y="617.5" fill="#FCDCBF" width="39" height="38"/>
	<rect x="39" y="578.5" fill="#FCDCBF" width="39" height="39"/>
	<rect x="39" y="539.5" fill="#FCDCBF" width="39" height="39"/>
	<rect x="39" y="500.5" fill="#FCDCBF" width="39" height="39"/>
	<rect x="39" y="462.5" fill="#FCDCBF" width="39" height="38"/>
	<rect x="39" y="423.5" fill="#FCDCBF" width="39" height="39"/>
	<rect x="39" y="384.5" fill="#FCDCBF" width="39" height="39"/>
	<rect x="39" y="346.5" fill="#FCDCBF" width="39" height="38"/>
	<rect x="39" y="307.5" fill="#FCDCBF" width="39" height="39"/>
	<rect x="39" y="268.5" fill="#FCDCBF" width="39" height="39"/>
	<rect x="39" y="229.5" fill="#FCDCBF" width="39" height="39"/>
	<rect x="39" y="191.5" fill="#FCDCBF" width="39" height="38"/>
	<rect x="39" y="152.5" fill="#D8A482" width="39" height="39"/>
	<rect y="655.5" fill="#D8A482" width="39" height="39"/>
	<rect y="617.5" fill="#D8A482" width="39" height="38"/>
	<rect y="578.5" fill="#D8A482" width="39" height="39"/>
	<rect y="539.5" fill="#D8A482" width="39" height="39"/>
	<rect y="500.5" fill="#D8A482" width="39" height="39"/>
	<rect y="462.5" fill="#D8A482" width="39" height="38"/>
	<rect y="423.5" fill="#D8A482" width="39" height="39"/>
	<rect y="384.5" fill="#D8A482" width="39" height="39"/>
	<rect y="346.5" fill="#D8A482" width="39" height="38"/>
	<rect y="307.5" fill="#D8A482" width="39" height="39"/>
	<rect y="268.5" fill="#D8A482" width="39" height="39"/>
	<rect y="229.5" fill="#D8A482" width="39" height="39"/>
	<rect y="191.5" fill="#D8A482" width="39" height="38"/>
</g>
</svg>
