<?xml version="1.0" encoding="utf-8"?>
<!-- Generator: Adobe Illustrator 16.0.0, SVG Export Plug-In . SVG Version: 6.00 Build 0)  -->
<!DOCTYPE svg PUBLIC "-//W3C//DTD SVG 1.1//EN" "http://www.w3.org/Graphics/SVG/1.1/DTD/svg11.dtd">
<svg version="1.1" id="paper" xmlns="http://www.w3.org/2000/svg" xmlns:xlink="http://www.w3.org/1999/xlink" x="0px" y="0px"
	 width="542px" height="1122px" viewBox="0 0 542 1122" enable-background="new 0 0 542 1122" xml:space="preserve">
<g>
	<rect x="504" y="581" fill="#D8A482" width="38" height="38"/>
	<rect x="504" y="542" fill="#D8A482" width="38" height="39"/>
	<rect x="504" y="503" fill="#D8A482" width="38" height="39"/>
	<rect x="504" y="464" fill="#D8A482" width="38" height="39"/>
	<rect x="504" y="426" fill="#D8A482" width="38" height="38"/>
	<rect x="465" y="658" fill="#D8A482" width="39" height="39"/>
	<rect x="465" y="619" fill="#D8A482" width="39" height="39"/>
	<rect x="465" y="581" fill="#FBCEA6" width="39" height="38"/>
	<rect x="465" y="542" fill="#FCDCBF" width="39" height="39"/>
	<rect x="465" y="503" fill="#FCDCBF" width="39" height="39"/>
	<rect x="465" y="464" fill="#FCDCBF" width="39" height="39"/>
	<rect x="465" y="426" fill="#FCDCBF" width="39" height="38"/>
	<rect x="465" y="387" fill="#D8A482" width="39" height="39"/>
	<rect x="465" y="348" fill="#D8A482" width="39" height="39"/>
	<rect x="465" y="310" fill="#D8A482" width="39" height="38"/>
	<rect x="465" y="271" fill="#D8A482" width="39" height="39"/>
	<rect x="465" y="232" fill="#D8A482" width="39" height="39"/>
	<rect x="465" y="193" fill="#D8A482" width="39" height="39"/>
	<rect x="465" y="155" fill="#D8A482" width="39" height="38"/>
	<rect x="465" y="116" fill="#D8A482" width="39" height="39"/>
	<rect x="465" y="77" fill="#D8A482" width="39" height="39"/>
	<rect x="426" y="697" fill="#D8A482" width="39" height="38"/>
	<rect x="426" y="658" fill="#FBCEA6" width="39" height="39"/>
	<rect x="426" y="619" fill="#FCDCBF" width="39" height="39"/>
	<rect x="426" y="581" fill="#FCDCBF" width="39" height="38"/>
	<rect x="426" y="542" fill="#FCDCBF" width="39" height="39"/>
	<rect x="426" y="503" fill="#FCDCBF" width="39" height="39"/>
	<rect x="426" y="464" fill="#FCDCBF" width="39" height="39"/>
	<rect x="426" y="426" fill="#FCDCBF" width="39" height="38"/>
	<rect x="426" y="387" fill="#D8A482" width="39" height="39"/>
	<rect x="426" y="348" fill="#FBCEA6" width="39" height="39"/>
	<rect x="426" y="310" fill="#FCDCBF" width="39" height="38"/>
	<rect x="426" y="271" fill="#FCDCBF" width="39" height="39"/>
	<rect x="426" y="232" fill="#FCDCBF" width="39" height="39"/>
	<rect x="426" y="193" fill="#FCDCBF" width="39" height="39"/>
	<rect x="426" y="155" fill="#FCDCBF" width="39" height="38"/>
	<rect x="426" y="116" fill="#FCDCBF" width="39" height="39"/>
	<rect x="426" y="77" fill="#FCDCBF" width="39" height="39"/>
	<rect x="426" y="39" fill="#D8A482" width="39" height="38"/>
	<polygon fill="#D8A482" points="426,1084 388,1084 388,1122 388,1123 426,1123 426,1122 	"/>
	<rect x="388" y="1045" fill="#D8A482" width="38" height="39"/>
	<rect x="388" y="1006" fill="#D8A482" width="38" height="39"/>
	<rect x="388" y="968" fill="#D8A482" width="38" height="38"/>
	<rect x="388" y="929" fill="#D8A482" width="38" height="39"/>
	<rect x="388" y="890" fill="#D8A482" width="38" height="39"/>
	<rect x="388" y="852" fill="#D8A482" width="38" height="38"/>
	<rect x="388" y="813" fill="#D8A482" width="38" height="39"/>
	<rect x="388" y="774" fill="#D8A482" width="38" height="39"/>
	<rect x="388" y="735" fill="#D8A482" width="38" height="39"/>
	<rect x="388" y="697" fill="#FBCEA6" width="38" height="38"/>
	<rect x="388" y="658" fill="#FCDCBF" width="38" height="39"/>
	<rect x="388" y="619" fill="#FCDCBF" width="38" height="39"/>
	<rect x="388" y="581" fill="#FCDCBF" width="38" height="38"/>
	<rect x="388" y="542" fill="#FBCEA6" width="38" height="39"/>
	<rect x="388" y="503" fill="#D8A482" width="38" height="39"/>
	<rect x="388" y="464" fill="#FCDCBF" width="38" height="39"/>
	<rect x="388" y="426" fill="#FCDCBF" width="38" height="38"/>
	<rect x="388" y="387" fill="#D8A482" width="38" height="39"/>
	<rect x="388" y="348" fill="#FBCEA6" width="38" height="39"/>
	<rect x="388" y="310" fill="#FCDCBF" width="38" height="38"/>
	<rect x="388" y="271" fill="#FCDCBF" width="38" height="39"/>
	<rect x="388" y="232" fill="#FCDCBF" width="38" height="39"/>
	<rect x="388" y="193" fill="#FCDCBF" width="38" height="39"/>
	<rect x="388" y="155" fill="#FCDCBF" width="38" height="38"/>
	<rect x="388" y="116" fill="#FCDCBF" width="38" height="39"/>
	<rect x="388" y="77" fill="#FCDCBF" width="38" height="39"/>
	<rect x="388" y="39" fill="#D8A482" width="38" height="38"/>
	<polygon fill="#FBCEA6" points="388,1084 349,1084 349,1122 349,1123 388,1123 388,1122 	"/>
	<rect x="349" y="1045" fill="#FBCEA6" width="39" height="39"/>
	<rect x="349" y="1006" fill="#FBCEA6" width="39" height="39"/>
	<rect x="349" y="968" fill="#FBCEA6" width="39" height="38"/>
	<rect x="349" y="929" fill="#FBCEA6" width="39" height="39"/>
	<rect x="349" y="890" fill="#FBCEA6" width="39" height="39"/>
	<rect x="349" y="852" fill="#FBCEA6" width="39" height="38"/>
	<rect x="349" y="813" fill="#FBCEA6" width="39" height="39"/>
	<rect x="349" y="774" fill="#FBCEA6" width="39" height="39"/>
	<rect x="349" y="735" fill="#FBCEA6" width="39" height="39"/>
	<rect x="349" y="697" fill="#FCDCBF" width="39" height="38"/>
	<rect x="349" y="658" fill="#FCDCBF" width="39" height="39"/>
	<rect x="349" y="619" fill="#FCDCBF" width="39" height="39"/>
	<rect x="349" y="581" fill="#FCDCBF" width="39" height="38"/>
	<rect x="349" y="542" fill="#FBCEA6" width="39" height="39"/>
	<rect x="349" y="503" fill="#D8A482" width="39" height="39"/>
	<rect x="349" y="464" fill="#FCDCBF" width="39" height="39"/>
	<rect x="349" y="426" fill="#FCDCBF" width="39" height="38"/>
	<rect x="349" y="387" fill="#D8A482" width="39" height="39"/>
	<rect x="349" y="348" fill="#FBCEA6" width="39" height="39"/>
	<rect x="349" y="310" fill="#D8A482" width="39" height="38"/>
	<rect x="349" y="271" fill="#D8A482" width="39" height="39"/>
	<rect x="349" y="232" fill="#D8A482" width="39" height="39"/>
	<rect x="349" y="193" fill="#D8A482" width="39" height="39"/>
	<rect x="349" y="155" fill="#D8A482" width="39" height="38"/>
	<rect x="349" y="116" fill="#D8A482" width="39" height="39"/>
	<rect x="349" y="77" fill="#D8A482" width="39" height="39"/>
	<rect x="349" y="39" fill="#D8A482" width="39" height="38"/>
	<rect x="349" fill="#D8A482" width="39" height="39"/>
	<polygon fill="#FCDCBF" points="349,1084 310,1084 310,1122 310,1123 349,1123 349,1122 	"/>
	<rect x="310" y="1045" fill="#FCDCBF" width="39" height="39"/>
	<rect x="310" y="1006" fill="#FCDCBF" width="39" height="39"/>
	<rect x="310" y="968" fill="#FCDCBF" width="39" height="38"/>
	<rect x="310" y="929" fill="#FCDCBF" width="39" height="39"/>
	<rect x="310" y="890" fill="#FCDCBF" width="39" height="39"/>
	<rect x="310" y="852" fill="#FCDCBF" width="39" height="38"/>
	<rect x="310" y="813" fill="#FCDCBF" width="39" height="39"/>
	<rect x="310" y="774" fill="#FCDCBF" width="39" height="39"/>
	<rect x="310" y="735" fill="#FBCEA6" width="39" height="39"/>
	<rect x="310" y="697" fill="#FCDCBF" width="39" height="38"/>
	<rect x="310" y="658" fill="#FCDCBF" width="39" height="39"/>
	<rect x="310" y="619" fill="#FCDCBF" width="39" height="39"/>
	<rect x="310" y="581" fill="#FCDCBF" width="39" height="38"/>
	<rect x="310" y="542" fill="#FBCEA6" width="39" height="39"/>
	<rect x="310" y="503" fill="#D8A482" width="39" height="39"/>
	<rect x="310" y="464" fill="#FCDCBF" width="39" height="39"/>
	<rect x="310" y="426" fill="#FCDCBF" width="39" height="38"/>
	<rect x="310" y="387" fill="#D8A482" width="39" height="39"/>
	<rect x="310" y="348" fill="#FBCEA6" width="39" height="39"/>
	<rect x="310" y="310" fill="#FCDCBF" width="39" height="38"/>
	<rect x="310" y="271" fill="#FCDCBF" width="39" height="39"/>
	<rect x="310" y="232" fill="#FCDCBF" width="39" height="39"/>
	<rect x="310" y="193" fill="#FCDCBF" width="39" height="39"/>
	<rect x="310" y="155" fill="#FCDCBF" width="39" height="38"/>
	<rect x="310" y="116" fill="#FCDCBF" width="39" height="39"/>
	<rect x="310" y="77" fill="#FCDCBF" width="39" height="39"/>
	<rect x="310" y="39" fill="#FCDCBF" width="39" height="38"/>
	<rect x="310" fill="#D8A482" width="39" height="39"/>
	<polygon fill="#FCDCBF" points="310,1084 271,1084 271,1122 271,1123 310,1123 310,1122 	"/>
	<rect x="271" y="1045" fill="#FCDCBF" width="39" height="39"/>
	<rect x="271" y="1006" fill="#FCDCBF" width="39" height="39"/>
	<rect x="271" y="968" fill="#FCDCBF" width="39" height="38"/>
	<rect x="271" y="929" fill="#FCDCBF" width="39" height="39"/>
	<rect x="271" y="890" fill="#FCDCBF" width="39" height="39"/>
	<rect x="271" y="852" fill="#FCDCBF" width="39" height="38"/>
	<rect x="271" y="813" fill="#FCDCBF" width="39" height="39"/>
	<rect x="271" y="774" fill="#FCDCBF" width="39" height="39"/>
	<rect x="271" y="735" fill="#FBCEA6" width="39" height="39"/>
	<rect x="271" y="697" fill="#FCDCBF" width="39" height="38"/>
	<rect x="271" y="658" fill="#FCDCBF" width="39" height="39"/>
	<rect x="271" y="619" fill="#FCDCBF" width="39" height="39"/>
	<rect x="271" y="581" fill="#FCDCBF" width="39" height="38"/>
	<rect x="271" y="542" fill="#FBCEA6" width="39" height="39"/>
	<rect x="271" y="503" fill="#D8A482" width="39" height="39"/>
	<rect x="271" y="464" fill="#FCDCBF" width="39" height="39"/>
	<rect x="271" y="426" fill="#FCDCBF" width="39" height="38"/>
	<rect x="271" y="387" fill="#D8A482" width="39" height="39"/>
	<rect x="271" y="348" fill="#FBCEA6" width="39" height="39"/>
	<rect x="271" y="310" fill="#FCDCBF" width="39" height="38"/>
	<rect x="271" y="271" fill="#FCDCBF" width="39" height="39"/>
	<rect x="271" y="232" fill="#FCDCBF" width="39" height="39"/>
	<rect x="271" y="193" fill="#FCDCBF" width="39" height="39"/>
	<rect x="271" y="155" fill="#FCDCBF" width="39" height="38"/>
	<rect x="271" y="116" fill="#FCDCBF" width="39" height="39"/>
	<rect x="271" y="77" fill="#FCDCBF" width="39" height="39"/>
	<rect x="271" y="39" fill="#FCDCBF" width="39" height="38"/>
	<rect x="271" fill="#D8A482" width="39" height="39"/>
	<polygon fill="#FCDCBF" points="271,1084 233,1084 233,1122 233,1123 271,1123 271,1122 	"/>
	<rect x="233" y="1045" fill="#FCDCBF" width="38" height="39"/>
	<rect x="233" y="1006" fill="#FCDCBF" width="38" height="39"/>
	<rect x="233" y="968" fill="#FCDCBF" width="38" height="38"/>
	<rect x="233" y="929" fill="#FCDCBF" width="38" height="39"/>
	<rect x="233" y="890" fill="#FCDCBF" width="38" height="39"/>
	<rect x="233" y="852" fill="#FCDCBF" width="38" height="38"/>
	<rect x="233" y="813" fill="#FCDCBF" width="38" height="39"/>
	<rect x="233" y="774" fill="#FCDCBF" width="38" height="39"/>
	<rect x="233" y="735" fill="#FCDCBF" width="38" height="39"/>
	<rect x="233" y="697" fill="#FCDCBF" width="38" height="38"/>
	<rect x="233" y="658" fill="#FCDCBF" width="38" height="39"/>
	<rect x="233" y="619" fill="#FCDCBF" width="38" height="39"/>
	<rect x="233" y="581" fill="#FCDCBF" width="38" height="38"/>
	<rect x="233" y="542" fill="#FCDCBF" width="38" height="39"/>
	<rect x="233" y="503" fill="#FBCEA6" width="38" height="39"/>
	<rect x="233" y="464" fill="#D8A482" width="38" height="39"/>
	<rect x="233" y="426" fill="#D8A482" width="38" height="38"/>
	<rect x="233" y="387" fill="#D8A482" width="38" height="39"/>
	<rect x="233" y="348" fill="#FBCEA6" width="38" height="39"/>
	<rect x="233" y="310" fill="#D8A482" width="38" height="38"/>
	<rect x="233" y="271" fill="#D8A482" width="38" height="39"/>
	<rect x="233" y="232" fill="#D8A482" width="38" height="39"/>
	<rect x="233" y="193" fill="#D8A482" width="38" height="39"/>
	<rect x="233" y="155" fill="#D8A482" width="38" height="38"/>
	<rect x="233" y="116" fill="#D8A482" width="38" height="39"/>
	<rect x="233" y="77" fill="#D8A482" width="38" height="39"/>
	<rect x="233" y="39" fill="#D8A482" width="38" height="38"/>
	<polygon fill="#FCDCBF" points="233,1084 194,1084 194,1122 194,1123 233,1123 233,1122 	"/>
	<rect x="194" y="1045" fill="#FCDCBF" width="39" height="39"/>
	<rect x="194" y="1006" fill="#FCDCBF" width="39" height="39"/>
	<rect x="194" y="968" fill="#FCDCBF" width="39" height="38"/>
	<rect x="194" y="929" fill="#FCDCBF" width="39" height="39"/>
	<rect x="194" y="890" fill="#FCDCBF" width="39" height="39"/>
	<rect x="194" y="852" fill="#FCDCBF" width="39" height="38"/>
	<rect x="194" y="813" fill="#FCDCBF" width="39" height="39"/>
	<rect x="194" y="774" fill="#FCDCBF" width="39" height="39"/>
	<rect x="194" y="735" fill="#FCDCBF" width="39" height="39"/>
	<rect x="194" y="697" fill="#FCDCBF" width="39" height="38"/>
	<rect x="194" y="658" fill="#FCDCBF" width="39" height="39"/>
	<rect x="194" y="619" fill="#FCDCBF" width="39" height="39"/>
	<rect x="194" y="581" fill="#FCDCBF" width="39" height="38"/>
	<rect x="194" y="542" fill="#FCDCBF" width="39" height="39"/>
	<rect x="194" y="503" fill="#FBCEA6" width="39" height="39"/>
	<rect x="194" y="464" fill="#FBCEA6" width="39" height="39"/>
	<rect x="194" y="426" fill="#FBCEA6" width="39" height="38"/>
	<rect x="194" y="387" fill="#FBCEA6" width="39" height="39"/>
	<rect x="194" y="348" fill="#FCDCBF" width="39" height="39"/>
	<rect x="194" y="310" fill="#FCDCBF" width="39" height="38"/>
	<rect x="194" y="271" fill="#FCDCBF" width="39" height="39"/>
	<rect x="194" y="232" fill="#FCDCBF" width="39" height="39"/>
	<rect x="194" y="193" fill="#FCDCBF" width="39" height="39"/>
	<rect x="194" y="155" fill="#FCDCBF" width="39" height="38"/>
	<rect x="194" y="116" fill="#FCDCBF" width="39" height="39"/>
	<rect x="194" y="77" fill="#FCDCBF" width="39" height="39"/>
	<rect x="194" y="39" fill="#D8A482" width="39" height="38"/>
	<polygon fill="#FCDCBF" points="194,1084 155,1084 155,1122 155,1123 194,1123 194,1122 	"/>
	<rect x="155" y="1045" fill="#FCDCBF" width="39" height="39"/>
	<rect x="155" y="1006" fill="#FCDCBF" width="39" height="39"/>
	<rect x="155" y="968" fill="#FCDCBF" width="39" height="38"/>
	<rect x="155" y="929" fill="#FCDCBF" width="39" height="39"/>
	<rect x="155" y="890" fill="#FCDCBF" width="39" height="39"/>
	<rect x="155" y="852" fill="#FCDCBF" width="39" height="38"/>
	<rect x="155" y="813" fill="#FCDCBF" width="39" height="39"/>
	<rect x="155" y="774" fill="#FCDCBF" width="39" height="39"/>
	<rect x="155" y="735" fill="#FBCEA6" width="39" height="39"/>
	<rect x="155" y="697" fill="#FCDCBF" width="39" height="38"/>
	<rect x="155" y="658" fill="#FCDCBF" width="39" height="39"/>
	<rect x="155" y="619" fill="#FCDCBF" width="39" height="39"/>
	<rect x="155" y="581" fill="#FCDCBF" width="39" height="38"/>
	<rect x="155" y="542" fill="#FCDCBF" width="39" height="39"/>
	<rect x="155" y="503" fill="#FCDCBF" width="39" height="39"/>
	<rect x="155" y="464" fill="#FCDCBF" width="39" height="39"/>
	<rect x="155" y="426" fill="#FCDCBF" width="39" height="38"/>
	<rect x="155" y="387" fill="#FCDCBF" width="39" height="39"/>
	<rect x="155" y="348" fill="#FCDCBF" width="39" height="39"/>
	<rect x="155" y="310" fill="#FCDCBF" width="39" height="38"/>
	<rect x="155" y="271" fill="#FCDCBF" width="39" height="39"/>
	<rect x="155" y="232" fill="#FCDCBF" width="39" height="39"/>
	<rect x="155" y="193" fill="#FCDCBF" width="39" height="39"/>
	<rect x="155" y="155" fill="#FCDCBF" width="39" height="38"/>
	<rect x="155" y="116" fill="#FCDCBF" width="39" height="39"/>
	<rect x="155" y="77" fill="#FCDCBF" width="39" height="39"/>
	<rect x="155" y="39" fill="#D8A482" width="39" height="38"/>
	<polygon fill="#FBCEA6" points="155,1084 117,1084 117,1122 117,1123 155,1123 155,1122 	"/>
	<rect x="117" y="1045" fill="#FBCEA6" width="38" height="39"/>
	<rect x="117" y="1006" fill="#FBCEA6" width="38" height="39"/>
	<rect x="117" y="968" fill="#FBCEA6" width="38" height="38"/>
	<rect x="117" y="929" fill="#FBCEA6" width="38" height="39"/>
	<rect x="117" y="890" fill="#FBCEA6" width="38" height="39"/>
	<rect x="117" y="852" fill="#FBCEA6" width="38" height="38"/>
	<rect x="117" y="813" fill="#FBCEA6" width="38" height="39"/>
	<rect x="117" y="774" fill="#FBCEA6" width="38" height="39"/>
	<rect x="117" y="735" fill="#FBCEA6" width="38" height="39"/>
	<rect x="117" y="697" fill="#FCDCBF" width="38" height="38"/>
	<rect x="117" y="658" fill="#FCDCBF" width="38" height="39"/>
	<rect x="117" y="619" fill="#FCDCBF" width="38" height="39"/>
	<rect x="117" y="581" fill="#FCDCBF" width="38" height="38"/>
	<rect x="117" y="542" fill="#FCDCBF" width="38" height="39"/>
	<rect x="117" y="503" fill="#FCDCBF" width="38" height="39"/>
	<rect x="117" y="464" fill="#FCDCBF" width="38" height="39"/>
	<rect x="117" y="426" fill="#FCDCBF" width="38" height="38"/>
	<rect x="117" y="387" fill="#FCDCBF" width="38" height="39"/>
	<rect x="117" y="348" fill="#FCDCBF" width="38" height="39"/>
	<rect x="117" y="310" fill="#D8A482" width="38" height="38"/>
	<rect x="117" y="271" fill="#D8A482" width="38" height="39"/>
	<rect x="117" y="232" fill="#D8A482" width="38" height="39"/>
	<rect x="117" y="193" fill="#D8A482" width="38" height="39"/>
	<rect x="117" y="155" fill="#D8A482" width="38" height="38"/>
	<rect x="117" y="116" fill="#D8A482" width="38" height="39"/>
	<rect x="117" y="77" fill="#D8A482" width="38" height="39"/>
	<polygon fill="#D8A482" points="117,1084 78,1084 78,1122 78,1123 117,1123 117,1122 	"/>
	<rect x="78" y="1045" fill="#D8A482" width="39" height="39"/>
	<rect x="78" y="1006" fill="#D8A482" width="39" height="39"/>
	<rect x="78" y="968" fill="#D8A482" width="39" height="38"/>
	<rect x="78" y="929" fill="#D8A482" width="39" height="39"/>
	<rect x="78" y="890" fill="#D8A482" width="39" height="39"/>
	<rect x="78" y="852" fill="#D8A482" width="39" height="38"/>
	<rect x="78" y="813" fill="#D8A482" width="39" height="39"/>
	<rect x="78" y="774" fill="#D8A482" width="39" height="39"/>
	<rect x="78" y="735" fill="#D8A482" width="39" height="39"/>
	<rect x="78" y="697" fill="#FBCEA6" width="39" height="38"/>
	<rect x="78" y="658" fill="#FCDCBF" width="39" height="39"/>
	<rect x="78" y="619" fill="#FCDCBF" width="39" height="39"/>
	<rect x="78" y="581" fill="#FCDCBF" width="39" height="38"/>
	<rect x="78" y="542" fill="#FCDCBF" width="39" height="39"/>
	<rect x="78" y="503" fill="#FCDCBF" width="39" height="39"/>
	<rect x="78" y="464" fill="#FCDCBF" width="39" height="39"/>
	<rect x="78" y="426" fill="#FCDCBF" width="39" height="38"/>
	<rect x="78" y="387" fill="#FCDCBF" width="39" height="39"/>
	<rect x="78" y="348" fill="#FCDCBF" width="39" height="39"/>
	<rect x="78" y="310" fill="#FCDCBF" width="39" height="38"/>
	<rect x="78" y="271" fill="#FCDCBF" width="39" height="39"/>
	<rect x="78" y="232" fill="#FCDCBF" width="39" height="39"/>
	<rect x="78" y="193" fill="#FCDCBF" width="39" height="39"/>
	<rect x="78" y="155" fill="#FCDCBF" width="39" height="38"/>
	<rect x="78" y="116" fill="#D8A482" width="39" height="39"/>
	<rect x="39" y="697" fill="#D8A482" width="39" height="38"/>
	<rect x="39" y="658" fill="#D8A482" width="39" height="39"/>
	<rect x="39" y="619" fill="#FBCEA6" width="39" height="39"/>
	<rect x="39" y="581" fill="#FCDCBF" width="39" height="38"/>
	<rect x="39" y="542" fill="#FCDCBF" width="39" height="39"/>
	<rect x="39" y="503" fill="#FCDCBF" width="39" height="39"/>
	<rect x="39" y="464" fill="#FCDCBF" width="39" height="39"/>
	<rect x="39" y="426" fill="#FCDCBF" width="39" height="38"/>
	<rect x="39" y="387" fill="#FCDCBF" width="39" height="39"/>
	<rect x="39" y="348" fill="#FCDCBF" width="39" height="39"/>
	<rect x="39" y="310" fill="#FCDCBF" width="39" height="38"/>
	<rect x="39" y="271" fill="#FCDCBF" width="39" height="39"/>
	<rect x="39" y="232" fill="#FCDCBF" width="39" height="39"/>
	<rect x="39" y="193" fill="#FCDCBF" width="39" height="39"/>
	<rect x="39" y="155" fill="#FCDCBF" width="39" height="38"/>
	<rect x="39" y="116" fill="#D8A482" width="39" height="39"/>
	<rect y="619" fill="#D8A482" width="39" height="39"/>
	<rect y="581" fill="#D8A482" width="39" height="38"/>
	<rect y="542" fill="#D8A482" width="39" height="39"/>
	<rect y="503" fill="#D8A482" width="39" height="39"/>
	<rect y="464" fill="#D8A482" width="39" height="39"/>
	<rect y="426" fill="#D8A482" width="39" height="38"/>
	<rect y="387" fill="#D8A482" width="39" height="39"/>
	<rect y="348" fill="#D8A482" width="39" height="39"/>
	<rect y="310" fill="#D8A482" width="39" height="38"/>
	<rect y="271" fill="#D8A482" width="39" height="39"/>
	<rect y="232" fill="#D8A482" width="39" height="39"/>
	<rect y="193" fill="#D8A482" width="39" height="39"/>
	<rect y="155" fill="#D8A482" width="39" height="38"/>
</g>
</svg>
