<?xml version="1.0" encoding="utf-8"?>
<!-- Generator: Adobe Illustrator 16.0.0, SVG Export Plug-In . SVG Version: 6.00 Build 0)  -->
<!DOCTYPE svg PUBLIC "-//W3C//DTD SVG 1.1//EN" "http://www.w3.org/Graphics/SVG/1.1/DTD/svg11.dtd">
<svg version="1.1" id="rock" xmlns="http://www.w3.org/2000/svg" xmlns:xlink="http://www.w3.org/1999/xlink" x="0px" y="0px"
	 width="542px" height="1159px" viewBox="0 0 542 1159" enable-background="new 0 0 542 1159" xml:space="preserve">
<g>
	<rect x="504" y="617" fill="#D8A482" width="38" height="38"/>
	<rect x="504" y="578" fill="#D8A482" width="38" height="39"/>
	<rect x="504" y="539" fill="#D8A482" width="38" height="39"/>
	<rect x="504" y="500" fill="#D8A482" width="38" height="39"/>
	<rect x="504" y="462" fill="#D8A482" width="38" height="38"/>
	<rect x="465" y="694" fill="#D8A482" width="39" height="39"/>
	<rect x="465" y="655" fill="#D8A482" width="39" height="39"/>
	<rect x="465" y="617" fill="#FBCEA6" width="39" height="38"/>
	<rect x="465" y="578" fill="#FCDCBF" width="39" height="39"/>
	<rect x="465" y="539" fill="#FCDCBF" width="39" height="39"/>
	<rect x="465" y="500" fill="#FCDCBF" width="39" height="39"/>
	<rect x="465" y="462" fill="#FCDCBF" width="39" height="38"/>
	<rect x="465" y="423" fill="#D8A482" width="39" height="39"/>
	<rect x="465" y="384" fill="#D8A482" width="39" height="39"/>
	<rect x="465" y="346" fill="#D8A482" width="39" height="38"/>
	<rect x="465" y="307" fill="#D8A482" width="39" height="39"/>
	<rect x="465" y="268" fill="#D8A482" width="39" height="39"/>
	<rect x="465" y="229" fill="#D8A482" width="39" height="39"/>
	<rect x="426" y="733" fill="#D8A482" width="39" height="38"/>
	<rect x="426" y="694" fill="#FBCEA6" width="39" height="39"/>
	<rect x="426" y="655" fill="#FCDCBF" width="39" height="39"/>
	<rect x="426" y="617" fill="#FCDCBF" width="39" height="38"/>
	<rect x="426" y="578" fill="#FCDCBF" width="39" height="39"/>
	<rect x="426" y="539" fill="#FCDCBF" width="39" height="39"/>
	<rect x="426" y="500" fill="#FCDCBF" width="39" height="39"/>
	<rect x="426" y="462" fill="#FCDCBF" width="39" height="38"/>
	<rect x="426" y="423" fill="#D8A482" width="39" height="39"/>
	<rect x="426" y="384" fill="#FBCEA6" width="39" height="39"/>
	<rect x="426" y="346" fill="#FCDCBF" width="39" height="38"/>
	<rect x="426" y="307" fill="#FCDCBF" width="39" height="39"/>
	<rect x="426" y="268" fill="#FCDCBF" width="39" height="39"/>
	<rect x="426" y="229" fill="#FCDCBF" width="39" height="39"/>
	<rect x="426" y="191" fill="#D8A482" width="39" height="38"/>
	<polygon fill="#D8A482" points="426,1120 388,1120 388,1158 388,1159 426,1159 426,1158 	"/>
	<rect x="388" y="1081" fill="#D8A482" width="38" height="39"/>
	<rect x="388" y="1042" fill="#D8A482" width="38" height="39"/>
	<rect x="388" y="1004" fill="#D8A482" width="38" height="38"/>
	<rect x="388" y="965" fill="#D8A482" width="38" height="39"/>
	<rect x="388" y="926" fill="#D8A482" width="38" height="39"/>
	<rect x="388" y="888" fill="#D8A482" width="38" height="38"/>
	<rect x="388" y="849" fill="#D8A482" width="38" height="39"/>
	<rect x="388" y="810" fill="#D8A482" width="38" height="39"/>
	<rect x="388" y="771" fill="#D8A482" width="38" height="39"/>
	<rect x="388" y="733" fill="#FBCEA6" width="38" height="38"/>
	<rect x="388" y="694" fill="#FCDCBF" width="38" height="39"/>
	<rect x="388" y="655" fill="#FCDCBF" width="38" height="39"/>
	<rect x="388" y="617" fill="#FCDCBF" width="38" height="38"/>
	<rect x="388" y="578" fill="#FBCEA6" width="38" height="39"/>
	<rect x="388" y="539" fill="#D8A482" width="38" height="39"/>
	<rect x="388" y="500" fill="#FCDCBF" width="38" height="39"/>
	<rect x="388" y="462" fill="#FCDCBF" width="38" height="38"/>
	<rect x="388" y="423" fill="#D8A482" width="38" height="39"/>
	<rect x="388" y="384" fill="#FBCEA6" width="38" height="39"/>
	<rect x="388" y="346" fill="#FCDCBF" width="38" height="38"/>
	<rect x="388" y="307" fill="#FCDCBF" width="38" height="39"/>
	<rect x="388" y="268" fill="#FCDCBF" width="38" height="39"/>
	<rect x="388" y="229" fill="#FCDCBF" width="38" height="39"/>
	<rect x="388" y="191" fill="#D8A482" width="38" height="38"/>
	<polygon fill="#FBCEA6" points="388,1120 349,1120 349,1158 349,1159 388,1159 388,1158 	"/>
	<rect x="349" y="1081" fill="#FBCEA6" width="39" height="39"/>
	<rect x="349" y="1042" fill="#FBCEA6" width="39" height="39"/>
	<rect x="349" y="1004" fill="#FBCEA6" width="39" height="38"/>
	<rect x="349" y="965" fill="#FBCEA6" width="39" height="39"/>
	<rect x="349" y="926" fill="#FBCEA6" width="39" height="39"/>
	<rect x="349" y="888" fill="#FBCEA6" width="39" height="38"/>
	<rect x="349" y="849" fill="#FBCEA6" width="39" height="39"/>
	<rect x="349" y="810" fill="#FBCEA6" width="39" height="39"/>
	<rect x="349" y="771" fill="#FBCEA6" width="39" height="39"/>
	<rect x="349" y="733" fill="#FCDCBF" width="39" height="38"/>
	<rect x="349" y="694" fill="#FCDCBF" width="39" height="39"/>
	<rect x="349" y="655" fill="#FCDCBF" width="39" height="39"/>
	<rect x="349" y="617" fill="#FCDCBF" width="39" height="38"/>
	<rect x="349" y="578" fill="#FBCEA6" width="39" height="39"/>
	<rect x="349" y="539" fill="#D8A482" width="39" height="39"/>
	<rect x="349" y="500" fill="#FCDCBF" width="39" height="39"/>
	<rect x="349" y="462" fill="#FCDCBF" width="39" height="38"/>
	<rect x="349" y="423" fill="#D8A482" width="39" height="39"/>
	<rect x="349" y="384" fill="#D8A482" width="39" height="39"/>
	<rect x="349" y="346" fill="#D8A482" width="39" height="38"/>
	<rect x="349" y="307" fill="#D8A482" width="39" height="39"/>
	<rect x="349" y="268" fill="#D8A482" width="39" height="39"/>
	<rect x="349" y="229" fill="#D8A482" width="39" height="39"/>
	<polygon fill="#FCDCBF" points="349,1120 310,1120 310,1158 310,1159 349,1159 349,1158 	"/>
	<rect x="310" y="1081" fill="#FCDCBF" width="39" height="39"/>
	<rect x="310" y="1042" fill="#FCDCBF" width="39" height="39"/>
	<rect x="310" y="1004" fill="#FCDCBF" width="39" height="38"/>
	<rect x="310" y="965" fill="#FCDCBF" width="39" height="39"/>
	<rect x="310" y="926" fill="#FCDCBF" width="39" height="39"/>
	<rect x="310" y="888" fill="#FCDCBF" width="39" height="38"/>
	<rect x="310" y="849" fill="#FCDCBF" width="39" height="39"/>
	<rect x="310" y="810" fill="#FCDCBF" width="39" height="39"/>
	<rect x="310" y="771" fill="#FBCEA6" width="39" height="39"/>
	<rect x="310" y="733" fill="#FCDCBF" width="39" height="38"/>
	<rect x="310" y="694" fill="#FCDCBF" width="39" height="39"/>
	<rect x="310" y="655" fill="#FCDCBF" width="39" height="39"/>
	<rect x="310" y="617" fill="#FCDCBF" width="39" height="38"/>
	<rect x="310" y="578" fill="#FBCEA6" width="39" height="39"/>
	<rect x="310" y="539" fill="#D8A482" width="39" height="39"/>
	<rect x="310" y="500" fill="#FCDCBF" width="39" height="39"/>
	<rect x="310" y="462" fill="#FCDCBF" width="39" height="38"/>
	<rect x="310" y="423" fill="#D8A482" width="39" height="39"/>
	<rect x="310" y="384" fill="#FBCEA6" width="39" height="39"/>
	<rect x="310" y="346" fill="#FCDCBF" width="39" height="38"/>
	<rect x="310" y="307" fill="#FCDCBF" width="39" height="39"/>
	<rect x="310" y="268" fill="#FCDCBF" width="39" height="39"/>
	<rect x="310" y="229" fill="#FCDCBF" width="39" height="39"/>
	<rect x="310" y="191" fill="#D8A482" width="39" height="38"/>
	<polygon fill="#FCDCBF" points="310,1120 271,1120 271,1158 271,1159 310,1159 310,1158 	"/>
	<rect x="271" y="1081" fill="#FCDCBF" width="39" height="39"/>
	<rect x="271" y="1042" fill="#FCDCBF" width="39" height="39"/>
	<rect x="271" y="1004" fill="#FCDCBF" width="39" height="38"/>
	<rect x="271" y="965" fill="#FCDCBF" width="39" height="39"/>
	<rect x="271" y="926" fill="#FCDCBF" width="39" height="39"/>
	<rect x="271" y="888" fill="#FCDCBF" width="39" height="38"/>
	<rect x="271" y="849" fill="#FCDCBF" width="39" height="39"/>
	<rect x="271" y="810" fill="#FCDCBF" width="39" height="39"/>
	<rect x="271" y="771" fill="#FBCEA6" width="39" height="39"/>
	<rect x="271" y="733" fill="#FCDCBF" width="39" height="38"/>
	<rect x="271" y="694" fill="#FCDCBF" width="39" height="39"/>
	<rect x="271" y="655" fill="#FCDCBF" width="39" height="39"/>
	<rect x="271" y="617" fill="#FCDCBF" width="39" height="38"/>
	<rect x="271" y="578" fill="#FBCEA6" width="39" height="39"/>
	<rect x="271" y="539" fill="#D8A482" width="39" height="39"/>
	<rect x="271" y="500" fill="#FCDCBF" width="39" height="39"/>
	<rect x="271" y="462" fill="#FCDCBF" width="39" height="38"/>
	<rect x="271" y="423" fill="#D8A482" width="39" height="39"/>
	<rect x="271" y="384" fill="#FBCEA6" width="39" height="39"/>
	<rect x="271" y="346" fill="#FCDCBF" width="39" height="38"/>
	<rect x="271" y="307" fill="#FCDCBF" width="39" height="39"/>
	<rect x="271" y="268" fill="#FCDCBF" width="39" height="39"/>
	<rect x="271" y="229" fill="#FCDCBF" width="39" height="39"/>
	<rect x="271" y="191" fill="#D8A482" width="39" height="38"/>
	<polygon fill="#FCDCBF" points="271,1120 233,1120 233,1158 233,1159 271,1159 271,1158 	"/>
	<rect x="233" y="1081" fill="#FCDCBF" width="38" height="39"/>
	<rect x="233" y="1042" fill="#FCDCBF" width="38" height="39"/>
	<rect x="233" y="1004" fill="#FCDCBF" width="38" height="38"/>
	<rect x="233" y="965" fill="#FCDCBF" width="38" height="39"/>
	<rect x="233" y="926" fill="#FCDCBF" width="38" height="39"/>
	<rect x="233" y="888" fill="#FCDCBF" width="38" height="38"/>
	<rect x="233" y="849" fill="#FCDCBF" width="38" height="39"/>
	<rect x="233" y="810" fill="#FCDCBF" width="38" height="39"/>
	<rect x="233" y="771" fill="#FCDCBF" width="38" height="39"/>
	<rect x="233" y="733" fill="#FCDCBF" width="38" height="38"/>
	<rect x="233" y="694" fill="#FCDCBF" width="38" height="39"/>
	<rect x="233" y="655" fill="#FCDCBF" width="38" height="39"/>
	<rect x="233" y="617" fill="#FCDCBF" width="38" height="38"/>
	<rect x="233" y="578" fill="#FCDCBF" width="38" height="39"/>
	<rect x="233" y="539" fill="#FBCEA6" width="38" height="39"/>
	<rect x="233" y="500" fill="#D8A482" width="38" height="39"/>
	<rect x="233" y="462" fill="#D8A482" width="38" height="38"/>
	<rect x="233" y="423" fill="#D8A482" width="38" height="39"/>
	<rect x="233" y="384" fill="#D8A482" width="38" height="39"/>
	<rect x="233" y="346" fill="#D8A482" width="38" height="38"/>
	<rect x="233" y="307" fill="#D8A482" width="38" height="39"/>
	<rect x="233" y="268" fill="#D8A482" width="38" height="39"/>
	<rect x="233" y="229" fill="#D8A482" width="38" height="39"/>
	<polygon fill="#FCDCBF" points="233,1120 194,1120 194,1158 194,1159 233,1159 233,1158 	"/>
	<rect x="194" y="1081" fill="#FCDCBF" width="39" height="39"/>
	<rect x="194" y="1042" fill="#FCDCBF" width="39" height="39"/>
	<rect x="194" y="1004" fill="#FCDCBF" width="39" height="38"/>
	<rect x="194" y="965" fill="#FCDCBF" width="39" height="39"/>
	<rect x="194" y="926" fill="#FCDCBF" width="39" height="39"/>
	<rect x="194" y="888" fill="#FCDCBF" width="39" height="38"/>
	<rect x="194" y="849" fill="#FCDCBF" width="39" height="39"/>
	<rect x="194" y="810" fill="#FCDCBF" width="39" height="39"/>
	<rect x="194" y="771" fill="#FCDCBF" width="39" height="39"/>
	<rect x="194" y="733" fill="#FCDCBF" width="39" height="38"/>
	<rect x="194" y="694" fill="#FCDCBF" width="39" height="39"/>
	<rect x="194" y="655" fill="#FCDCBF" width="39" height="39"/>
	<rect x="194" y="617" fill="#FCDCBF" width="39" height="38"/>
	<rect x="194" y="578" fill="#FCDCBF" width="39" height="39"/>
	<rect x="194" y="539" fill="#FBCEA6" width="39" height="39"/>
	<rect x="194" y="500" fill="#D8A482" width="39" height="39"/>
	<rect x="194" y="462" fill="#FBCEA6" width="39" height="38"/>
	<rect x="194" y="423" fill="#FBCEA6" width="39" height="39"/>
	<rect x="194" y="384" fill="#FCDCBF" width="39" height="39"/>
	<rect x="194" y="346" fill="#FCDCBF" width="39" height="38"/>
	<rect x="194" y="307" fill="#FCDCBF" width="39" height="39"/>
	<rect x="194" y="268" fill="#FCDCBF" width="39" height="39"/>
	<rect x="194" y="229" fill="#D8A482" width="39" height="39"/>
	<polygon fill="#FCDCBF" points="194,1120 155,1120 155,1158 155,1159 194,1159 194,1158 	"/>
	<rect x="155" y="1081" fill="#FCDCBF" width="39" height="39"/>
	<rect x="155" y="1042" fill="#FCDCBF" width="39" height="39"/>
	<rect x="155" y="1004" fill="#FCDCBF" width="39" height="38"/>
	<rect x="155" y="965" fill="#FCDCBF" width="39" height="39"/>
	<rect x="155" y="926" fill="#FCDCBF" width="39" height="39"/>
	<rect x="155" y="888" fill="#FCDCBF" width="39" height="38"/>
	<rect x="155" y="849" fill="#FCDCBF" width="39" height="39"/>
	<rect x="155" y="810" fill="#FCDCBF" width="39" height="39"/>
	<rect x="155" y="771" fill="#FBCEA6" width="39" height="39"/>
	<rect x="155" y="733" fill="#FCDCBF" width="39" height="38"/>
	<rect x="155" y="694" fill="#FCDCBF" width="39" height="39"/>
	<rect x="155" y="655" fill="#FCDCBF" width="39" height="39"/>
	<rect x="155" y="617" fill="#FCDCBF" width="39" height="38"/>
	<rect x="155" y="578" fill="#FCDCBF" width="39" height="39"/>
	<rect x="155" y="539" fill="#FBCEA6" width="39" height="39"/>
	<rect x="155" y="500" fill="#D8A482" width="39" height="39"/>
	<rect x="155" y="462" fill="#FCDCBF" width="39" height="38"/>
	<rect x="155" y="423" fill="#FCDCBF" width="39" height="39"/>
	<rect x="155" y="384" fill="#FCDCBF" width="39" height="39"/>
	<rect x="155" y="346" fill="#FCDCBF" width="39" height="38"/>
	<rect x="155" y="307" fill="#FCDCBF" width="39" height="39"/>
	<rect x="155" y="268" fill="#FCDCBF" width="39" height="39"/>
	<rect x="155" y="229" fill="#D8A482" width="39" height="39"/>
	<polygon fill="#FBCEA6" points="155,1120 117,1120 117,1158 117,1159 155,1159 155,1158 	"/>
	<rect x="117" y="1081" fill="#FBCEA6" width="38" height="39"/>
	<rect x="117" y="1042" fill="#FBCEA6" width="38" height="39"/>
	<rect x="117" y="1004" fill="#FBCEA6" width="38" height="38"/>
	<rect x="117" y="965" fill="#FBCEA6" width="38" height="39"/>
	<rect x="117" y="926" fill="#FBCEA6" width="38" height="39"/>
	<rect x="117" y="888" fill="#FBCEA6" width="38" height="38"/>
	<rect x="117" y="849" fill="#FBCEA6" width="38" height="39"/>
	<rect x="117" y="810" fill="#FBCEA6" width="38" height="39"/>
	<rect x="117" y="771" fill="#FBCEA6" width="38" height="39"/>
	<rect x="117" y="733" fill="#FCDCBF" width="38" height="38"/>
	<rect x="117" y="694" fill="#FCDCBF" width="38" height="39"/>
	<rect x="117" y="655" fill="#FCDCBF" width="38" height="39"/>
	<rect x="117" y="617" fill="#FCDCBF" width="38" height="38"/>
	<rect x="117" y="578" fill="#FCDCBF" width="38" height="39"/>
	<rect x="117" y="539" fill="#FCDCBF" width="38" height="39"/>
	<rect x="117" y="500" fill="#FBCEA6" width="38" height="39"/>
	<rect x="117" y="462" fill="#D8A482" width="38" height="38"/>
	<rect x="117" y="423" fill="#D8A482" width="38" height="39"/>
	<rect x="117" y="384" fill="#D8A482" width="38" height="39"/>
	<rect x="117" y="346" fill="#D8A482" width="38" height="38"/>
	<rect x="117" y="307" fill="#D8A482" width="38" height="39"/>
	<rect x="117" y="268" fill="#D8A482" width="38" height="39"/>
	<polygon fill="#D8A482" points="117,1120 78,1120 78,1158 78,1159 117,1159 117,1158 	"/>
	<rect x="78" y="1081" fill="#D8A482" width="39" height="39"/>
	<rect x="78" y="1042" fill="#D8A482" width="39" height="39"/>
	<rect x="78" y="1004" fill="#D8A482" width="39" height="38"/>
	<rect x="78" y="965" fill="#D8A482" width="39" height="39"/>
	<rect x="78" y="926" fill="#D8A482" width="39" height="39"/>
	<rect x="78" y="888" fill="#D8A482" width="39" height="38"/>
	<rect x="78" y="849" fill="#D8A482" width="39" height="39"/>
	<rect x="78" y="810" fill="#D8A482" width="39" height="39"/>
	<rect x="78" y="771" fill="#D8A482" width="39" height="39"/>
	<rect x="78" y="733" fill="#FBCEA6" width="39" height="38"/>
	<rect x="78" y="694" fill="#FCDCBF" width="39" height="39"/>
	<rect x="78" y="655" fill="#FCDCBF" width="39" height="39"/>
	<rect x="78" y="617" fill="#FCDCBF" width="39" height="38"/>
	<rect x="78" y="578" fill="#FCDCBF" width="39" height="39"/>
	<rect x="78" y="539" fill="#FBCEA6" width="39" height="39"/>
	<rect x="78" y="500" fill="#D8A482" width="39" height="39"/>
	<rect x="78" y="462" fill="#FBCEA6" width="39" height="38"/>
	<rect x="78" y="423" fill="#FCDCBF" width="39" height="39"/>
	<rect x="78" y="384" fill="#FCDCBF" width="39" height="39"/>
	<rect x="78" y="346" fill="#FCDCBF" width="39" height="38"/>
	<rect x="78" y="307" fill="#FCDCBF" width="39" height="39"/>
	<rect x="78" y="268" fill="#D8A482" width="39" height="39"/>
	<rect x="39" y="733" fill="#D8A482" width="39" height="38"/>
	<rect x="39" y="694" fill="#D8A482" width="39" height="39"/>
	<rect x="39" y="655" fill="#FBCEA6" width="39" height="39"/>
	<rect x="39" y="617" fill="#FCDCBF" width="39" height="38"/>
	<rect x="39" y="578" fill="#FCDCBF" width="39" height="39"/>
	<rect x="39" y="539" fill="#FBCEA6" width="39" height="39"/>
	<rect x="39" y="500" fill="#D8A482" width="39" height="39"/>
	<rect x="39" y="462" fill="#FCDCBF" width="39" height="38"/>
	<rect x="39" y="423" fill="#FCDCBF" width="39" height="39"/>
	<rect x="39" y="384" fill="#FCDCBF" width="39" height="39"/>
	<rect x="39" y="346" fill="#FCDCBF" width="39" height="38"/>
	<rect x="39" y="307" fill="#FCDCBF" width="39" height="39"/>
	<rect x="39" y="268" fill="#D8A482" width="39" height="39"/>
	<rect y="655" fill="#D8A482" width="39" height="39"/>
	<rect y="617" fill="#D8A482" width="39" height="38"/>
	<rect y="578" fill="#D8A482" width="39" height="39"/>
	<rect y="539" fill="#D8A482" width="39" height="39"/>
	<rect y="500" fill="#D8A482" width="39" height="39"/>
	<rect y="462" fill="#D8A482" width="39" height="38"/>
	<rect y="423" fill="#D8A482" width="39" height="39"/>
	<rect y="384" fill="#D8A482" width="39" height="39"/>
	<rect y="346" fill="#D8A482" width="39" height="38"/>
	<rect y="307" fill="#D8A482" width="39" height="39"/>
</g>
</svg>
