<?xml version="1.0" encoding="utf-8"?>
<!-- Generator: Adobe Illustrator 16.0.0, SVG Export Plug-In . SVG Version: 6.00 Build 0)  -->
<!DOCTYPE svg PUBLIC "-//W3C//DTD SVG 1.1//EN" "http://www.w3.org/Graphics/SVG/1.1/DTD/svg11.dtd">
<svg version="1.1" id="rock" xmlns="http://www.w3.org/2000/svg" xmlns:xlink="http://www.w3.org/1999/xlink" x="0px" y="0px"
	 width="542px" height="967px" viewBox="0 0 542 967" enable-background="new 0 0 542 967" xml:space="preserve">
<g>
	<rect x="504" y="426" fill="#D8A482" width="38" height="38"/>
	<rect x="504" y="387" fill="#D8A482" width="38" height="39"/>
	<rect x="504" y="348" fill="#D8A482" width="38" height="39"/>
	<rect x="504" y="309" fill="#D8A482" width="38" height="39"/>
	<rect x="504" y="271" fill="#D8A482" width="38" height="38"/>
	<rect x="465" y="503" fill="#D8A482" width="39" height="39"/>
	<rect x="465" y="464" fill="#D8A482" width="39" height="39"/>
	<rect x="465" y="426" fill="#FBCEA6" width="39" height="38"/>
	<rect x="465" y="387" fill="#FCDCBF" width="39" height="39"/>
	<rect x="465" y="348" fill="#FCDCBF" width="39" height="39"/>
	<rect x="465" y="309" fill="#FCDCBF" width="39" height="39"/>
	<rect x="465" y="271" fill="#FCDCBF" width="39" height="38"/>
	<rect x="465" y="232" fill="#D8A482" width="39" height="39"/>
	<rect x="465" y="193" fill="#D8A482" width="39" height="39"/>
	<rect x="465" y="155" fill="#D8A482" width="39" height="38"/>
	<rect x="465" y="116" fill="#D8A482" width="39" height="39"/>
	<rect x="465" y="77" fill="#D8A482" width="39" height="39"/>
	<rect x="465" y="38" fill="#D8A482" width="39" height="39"/>
	<rect x="426" y="542" fill="#D8A482" width="39" height="38"/>
	<rect x="426" y="503" fill="#FBCEA6" width="39" height="39"/>
	<rect x="426" y="464" fill="#FCDCBF" width="39" height="39"/>
	<rect x="426" y="426" fill="#FCDCBF" width="39" height="38"/>
	<rect x="426" y="387" fill="#FCDCBF" width="39" height="39"/>
	<rect x="426" y="348" fill="#FCDCBF" width="39" height="39"/>
	<rect x="426" y="309" fill="#FCDCBF" width="39" height="39"/>
	<rect x="426" y="271" fill="#FCDCBF" width="39" height="38"/>
	<rect x="426" y="232" fill="#D8A482" width="39" height="39"/>
	<rect x="426" y="193" fill="#FBCEA6" width="39" height="39"/>
	<rect x="426" y="155" fill="#FCDCBF" width="39" height="38"/>
	<rect x="426" y="116" fill="#FCDCBF" width="39" height="39"/>
	<rect x="426" y="77" fill="#FCDCBF" width="39" height="39"/>
	<rect x="426" y="38" fill="#FCDCBF" width="39" height="39"/>
	<rect x="426" fill="#D8A482" width="39" height="38"/>
	<polygon fill="#D8A482" points="426,929 388,929 388,967 388,968 426,968 426,967 	"/>
	<rect x="388" y="890" fill="#D8A482" width="38" height="39"/>
	<rect x="388" y="851" fill="#D8A482" width="38" height="39"/>
	<rect x="388" y="813" fill="#D8A482" width="38" height="38"/>
	<rect x="388" y="774" fill="#D8A482" width="38" height="39"/>
	<rect x="388" y="735" fill="#D8A482" width="38" height="39"/>
	<rect x="388" y="697" fill="#D8A482" width="38" height="38"/>
	<rect x="388" y="658" fill="#D8A482" width="38" height="39"/>
	<rect x="388" y="619" fill="#D8A482" width="38" height="39"/>
	<rect x="388" y="580" fill="#D8A482" width="38" height="39"/>
	<rect x="388" y="542" fill="#FBCEA6" width="38" height="38"/>
	<rect x="388" y="503" fill="#FCDCBF" width="38" height="39"/>
	<rect x="388" y="464" fill="#FCDCBF" width="38" height="39"/>
	<rect x="388" y="426" fill="#FCDCBF" width="38" height="38"/>
	<rect x="388" y="387" fill="#FBCEA6" width="38" height="39"/>
	<rect x="388" y="348" fill="#D8A482" width="38" height="39"/>
	<rect x="388" y="309" fill="#FCDCBF" width="38" height="39"/>
	<rect x="388" y="271" fill="#FCDCBF" width="38" height="38"/>
	<rect x="388" y="232" fill="#D8A482" width="38" height="39"/>
	<rect x="388" y="193" fill="#FBCEA6" width="38" height="39"/>
	<rect x="388" y="155" fill="#FCDCBF" width="38" height="38"/>
	<rect x="388" y="116" fill="#FCDCBF" width="38" height="39"/>
	<rect x="388" y="77" fill="#FCDCBF" width="38" height="39"/>
	<rect x="388" y="38" fill="#FCDCBF" width="38" height="39"/>
	<rect x="388" fill="#D8A482" width="38" height="38"/>
	<polygon fill="#FBCEA6" points="388,929 349,929 349,967 349,968 388,968 388,967 	"/>
	<rect x="349" y="890" fill="#FBCEA6" width="39" height="39"/>
	<rect x="349" y="851" fill="#FBCEA6" width="39" height="39"/>
	<rect x="349" y="813" fill="#FBCEA6" width="39" height="38"/>
	<rect x="349" y="774" fill="#FBCEA6" width="39" height="39"/>
	<rect x="349" y="735" fill="#FBCEA6" width="39" height="39"/>
	<rect x="349" y="697" fill="#FBCEA6" width="39" height="38"/>
	<rect x="349" y="658" fill="#FBCEA6" width="39" height="39"/>
	<rect x="349" y="619" fill="#FBCEA6" width="39" height="39"/>
	<rect x="349" y="580" fill="#FBCEA6" width="39" height="39"/>
	<rect x="349" y="542" fill="#FCDCBF" width="39" height="38"/>
	<rect x="349" y="503" fill="#FCDCBF" width="39" height="39"/>
	<rect x="349" y="464" fill="#FCDCBF" width="39" height="39"/>
	<rect x="349" y="426" fill="#FCDCBF" width="39" height="38"/>
	<rect x="349" y="387" fill="#FBCEA6" width="39" height="39"/>
	<rect x="349" y="348" fill="#D8A482" width="39" height="39"/>
	<rect x="349" y="309" fill="#FCDCBF" width="39" height="39"/>
	<rect x="349" y="271" fill="#FCDCBF" width="39" height="38"/>
	<rect x="349" y="232" fill="#D8A482" width="39" height="39"/>
	<rect x="349" y="193" fill="#D8A482" width="39" height="39"/>
	<rect x="349" y="155" fill="#D8A482" width="39" height="38"/>
	<rect x="349" y="116" fill="#D8A482" width="39" height="39"/>
	<rect x="349" y="77" fill="#D8A482" width="39" height="39"/>
	<rect x="349" y="38" fill="#D8A482" width="39" height="39"/>
	<polygon fill="#FCDCBF" points="349,929 310,929 310,967 310,968 349,968 349,967 	"/>
	<rect x="310" y="890" fill="#FCDCBF" width="39" height="39"/>
	<rect x="310" y="851" fill="#FCDCBF" width="39" height="39"/>
	<rect x="310" y="813" fill="#FCDCBF" width="39" height="38"/>
	<rect x="310" y="774" fill="#FCDCBF" width="39" height="39"/>
	<rect x="310" y="735" fill="#FCDCBF" width="39" height="39"/>
	<rect x="310" y="697" fill="#FCDCBF" width="39" height="38"/>
	<rect x="310" y="658" fill="#FCDCBF" width="39" height="39"/>
	<rect x="310" y="619" fill="#FCDCBF" width="39" height="39"/>
	<rect x="310" y="580" fill="#FBCEA6" width="39" height="39"/>
	<rect x="310" y="542" fill="#FCDCBF" width="39" height="38"/>
	<rect x="310" y="503" fill="#FCDCBF" width="39" height="39"/>
	<rect x="310" y="464" fill="#FCDCBF" width="39" height="39"/>
	<rect x="310" y="426" fill="#FCDCBF" width="39" height="38"/>
	<rect x="310" y="387" fill="#FBCEA6" width="39" height="39"/>
	<rect x="310" y="348" fill="#D8A482" width="39" height="39"/>
	<rect x="310" y="309" fill="#FCDCBF" width="39" height="39"/>
	<rect x="310" y="271" fill="#FCDCBF" width="39" height="38"/>
	<rect x="310" y="232" fill="#D8A482" width="39" height="39"/>
	<rect x="310" y="193" fill="#FBCEA6" width="39" height="39"/>
	<rect x="310" y="155" fill="#FCDCBF" width="39" height="38"/>
	<rect x="310" y="116" fill="#FCDCBF" width="39" height="39"/>
	<rect x="310" y="77" fill="#FCDCBF" width="39" height="39"/>
	<rect x="310" y="38" fill="#FCDCBF" width="39" height="39"/>
	<rect x="310" fill="#D8A482" width="39" height="38"/>
	<polygon fill="#FCDCBF" points="310,929 271,929 271,967 271,968 310,968 310,967 	"/>
	<rect x="271" y="890" fill="#FCDCBF" width="39" height="39"/>
	<rect x="271" y="851" fill="#FCDCBF" width="39" height="39"/>
	<rect x="271" y="813" fill="#FCDCBF" width="39" height="38"/>
	<rect x="271" y="774" fill="#FCDCBF" width="39" height="39"/>
	<rect x="271" y="735" fill="#FCDCBF" width="39" height="39"/>
	<rect x="271" y="697" fill="#FCDCBF" width="39" height="38"/>
	<rect x="271" y="658" fill="#FCDCBF" width="39" height="39"/>
	<rect x="271" y="619" fill="#FCDCBF" width="39" height="39"/>
	<rect x="271" y="580" fill="#FBCEA6" width="39" height="39"/>
	<rect x="271" y="542" fill="#FCDCBF" width="39" height="38"/>
	<rect x="271" y="503" fill="#FCDCBF" width="39" height="39"/>
	<rect x="271" y="464" fill="#FCDCBF" width="39" height="39"/>
	<rect x="271" y="426" fill="#FCDCBF" width="39" height="38"/>
	<rect x="271" y="387" fill="#FBCEA6" width="39" height="39"/>
	<rect x="271" y="348" fill="#D8A482" width="39" height="39"/>
	<rect x="271" y="309" fill="#FCDCBF" width="39" height="39"/>
	<rect x="271" y="271" fill="#FCDCBF" width="39" height="38"/>
	<rect x="271" y="232" fill="#D8A482" width="39" height="39"/>
	<rect x="271" y="193" fill="#FBCEA6" width="39" height="39"/>
	<rect x="271" y="155" fill="#FCDCBF" width="39" height="38"/>
	<rect x="271" y="116" fill="#FCDCBF" width="39" height="39"/>
	<rect x="271" y="77" fill="#FCDCBF" width="39" height="39"/>
	<rect x="271" y="38" fill="#FCDCBF" width="39" height="39"/>
	<rect x="271" fill="#D8A482" width="39" height="38"/>
	<polygon fill="#FCDCBF" points="271,929 233,929 233,967 233,968 271,968 271,967 	"/>
	<rect x="233" y="890" fill="#FCDCBF" width="38" height="39"/>
	<rect x="233" y="851" fill="#FCDCBF" width="38" height="39"/>
	<rect x="233" y="813" fill="#FCDCBF" width="38" height="38"/>
	<rect x="233" y="774" fill="#FCDCBF" width="38" height="39"/>
	<rect x="233" y="735" fill="#FCDCBF" width="38" height="39"/>
	<rect x="233" y="697" fill="#FCDCBF" width="38" height="38"/>
	<rect x="233" y="658" fill="#FCDCBF" width="38" height="39"/>
	<rect x="233" y="619" fill="#FCDCBF" width="38" height="39"/>
	<rect x="233" y="580" fill="#FCDCBF" width="38" height="39"/>
	<rect x="233" y="542" fill="#FCDCBF" width="38" height="38"/>
	<rect x="233" y="503" fill="#FCDCBF" width="38" height="39"/>
	<rect x="233" y="464" fill="#FCDCBF" width="38" height="39"/>
	<rect x="233" y="426" fill="#FCDCBF" width="38" height="38"/>
	<rect x="233" y="387" fill="#FCDCBF" width="38" height="39"/>
	<rect x="233" y="348" fill="#FBCEA6" width="38" height="39"/>
	<rect x="233" y="309" fill="#D8A482" width="38" height="39"/>
	<rect x="233" y="271" fill="#D8A482" width="38" height="38"/>
	<rect x="233" y="232" fill="#D8A482" width="38" height="39"/>
	<rect x="233" y="193" fill="#D8A482" width="38" height="39"/>
	<rect x="233" y="155" fill="#D8A482" width="38" height="38"/>
	<rect x="233" y="116" fill="#D8A482" width="38" height="39"/>
	<rect x="233" y="77" fill="#D8A482" width="38" height="39"/>
	<rect x="233" y="38" fill="#D8A482" width="38" height="39"/>
	<polygon fill="#FCDCBF" points="233,929 194,929 194,967 194,968 233,968 233,967 	"/>
	<rect x="194" y="890" fill="#FCDCBF" width="39" height="39"/>
	<rect x="194" y="851" fill="#FCDCBF" width="39" height="39"/>
	<rect x="194" y="813" fill="#FCDCBF" width="39" height="38"/>
	<rect x="194" y="774" fill="#FCDCBF" width="39" height="39"/>
	<rect x="194" y="735" fill="#FCDCBF" width="39" height="39"/>
	<rect x="194" y="697" fill="#FCDCBF" width="39" height="38"/>
	<rect x="194" y="658" fill="#FCDCBF" width="39" height="39"/>
	<rect x="194" y="619" fill="#FCDCBF" width="39" height="39"/>
	<rect x="194" y="580" fill="#FCDCBF" width="39" height="39"/>
	<rect x="194" y="542" fill="#FCDCBF" width="39" height="38"/>
	<rect x="194" y="503" fill="#FCDCBF" width="39" height="39"/>
	<rect x="194" y="464" fill="#FCDCBF" width="39" height="39"/>
	<rect x="194" y="426" fill="#FCDCBF" width="39" height="38"/>
	<rect x="194" y="387" fill="#FCDCBF" width="39" height="39"/>
	<rect x="194" y="348" fill="#FBCEA6" width="39" height="39"/>
	<rect x="194" y="309" fill="#D8A482" width="39" height="39"/>
	<rect x="194" y="271" fill="#FBCEA6" width="39" height="38"/>
	<rect x="194" y="232" fill="#FBCEA6" width="39" height="39"/>
	<rect x="194" y="193" fill="#FCDCBF" width="39" height="39"/>
	<rect x="194" y="155" fill="#FCDCBF" width="39" height="38"/>
	<rect x="194" y="116" fill="#FCDCBF" width="39" height="39"/>
	<rect x="194" y="77" fill="#FCDCBF" width="39" height="39"/>
	<rect x="194" y="38" fill="#D8A482" width="39" height="39"/>
	<polygon fill="#FCDCBF" points="194,929 155,929 155,967 155,968 194,968 194,967 	"/>
	<rect x="155" y="890" fill="#FCDCBF" width="39" height="39"/>
	<rect x="155" y="851" fill="#FCDCBF" width="39" height="39"/>
	<rect x="155" y="813" fill="#FCDCBF" width="39" height="38"/>
	<rect x="155" y="774" fill="#FCDCBF" width="39" height="39"/>
	<rect x="155" y="735" fill="#FCDCBF" width="39" height="39"/>
	<rect x="155" y="697" fill="#FCDCBF" width="39" height="38"/>
	<rect x="155" y="658" fill="#FCDCBF" width="39" height="39"/>
	<rect x="155" y="619" fill="#FCDCBF" width="39" height="39"/>
	<rect x="155" y="580" fill="#FBCEA6" width="39" height="39"/>
	<rect x="155" y="542" fill="#FCDCBF" width="39" height="38"/>
	<rect x="155" y="503" fill="#FCDCBF" width="39" height="39"/>
	<rect x="155" y="464" fill="#FCDCBF" width="39" height="39"/>
	<rect x="155" y="426" fill="#FCDCBF" width="39" height="38"/>
	<rect x="155" y="387" fill="#FCDCBF" width="39" height="39"/>
	<rect x="155" y="348" fill="#FBCEA6" width="39" height="39"/>
	<rect x="155" y="309" fill="#D8A482" width="39" height="39"/>
	<rect x="155" y="271" fill="#FCDCBF" width="39" height="38"/>
	<rect x="155" y="232" fill="#FCDCBF" width="39" height="39"/>
	<rect x="155" y="193" fill="#FCDCBF" width="39" height="39"/>
	<rect x="155" y="155" fill="#FCDCBF" width="39" height="38"/>
	<rect x="155" y="116" fill="#FCDCBF" width="39" height="39"/>
	<rect x="155" y="77" fill="#FCDCBF" width="39" height="39"/>
	<rect x="155" y="38" fill="#D8A482" width="39" height="39"/>
	<polygon fill="#FBCEA6" points="155,929 117,929 117,967 117,968 155,968 155,967 	"/>
	<rect x="117" y="890" fill="#FBCEA6" width="38" height="39"/>
	<rect x="117" y="851" fill="#FBCEA6" width="38" height="39"/>
	<rect x="117" y="813" fill="#FBCEA6" width="38" height="38"/>
	<rect x="117" y="774" fill="#FBCEA6" width="38" height="39"/>
	<rect x="117" y="735" fill="#FBCEA6" width="38" height="39"/>
	<rect x="117" y="697" fill="#FBCEA6" width="38" height="38"/>
	<rect x="117" y="658" fill="#FBCEA6" width="38" height="39"/>
	<rect x="117" y="619" fill="#FBCEA6" width="38" height="39"/>
	<rect x="117" y="580" fill="#FBCEA6" width="38" height="39"/>
	<rect x="117" y="542" fill="#FCDCBF" width="38" height="38"/>
	<rect x="117" y="503" fill="#FCDCBF" width="38" height="39"/>
	<rect x="117" y="464" fill="#FCDCBF" width="38" height="39"/>
	<rect x="117" y="426" fill="#FCDCBF" width="38" height="38"/>
	<rect x="117" y="387" fill="#FCDCBF" width="38" height="39"/>
	<rect x="117" y="348" fill="#FCDCBF" width="38" height="39"/>
	<rect x="117" y="309" fill="#FBCEA6" width="38" height="39"/>
	<rect x="117" y="271" fill="#D8A482" width="38" height="38"/>
	<rect x="117" y="232" fill="#D8A482" width="38" height="39"/>
	<rect x="117" y="193" fill="#D8A482" width="38" height="39"/>
	<rect x="117" y="155" fill="#D8A482" width="38" height="38"/>
	<rect x="117" y="116" fill="#D8A482" width="38" height="39"/>
	<rect x="117" y="77" fill="#D8A482" width="38" height="39"/>
	<polygon fill="#D8A482" points="117,929 78,929 78,967 78,968 117,968 117,967 	"/>
	<rect x="78" y="890" fill="#D8A482" width="39" height="39"/>
	<rect x="78" y="851" fill="#D8A482" width="39" height="39"/>
	<rect x="78" y="813" fill="#D8A482" width="39" height="38"/>
	<rect x="78" y="774" fill="#D8A482" width="39" height="39"/>
	<rect x="78" y="735" fill="#D8A482" width="39" height="39"/>
	<rect x="78" y="697" fill="#D8A482" width="39" height="38"/>
	<rect x="78" y="658" fill="#D8A482" width="39" height="39"/>
	<rect x="78" y="619" fill="#D8A482" width="39" height="39"/>
	<rect x="78" y="580" fill="#D8A482" width="39" height="39"/>
	<rect x="78" y="542" fill="#FBCEA6" width="39" height="38"/>
	<rect x="78" y="503" fill="#FCDCBF" width="39" height="39"/>
	<rect x="78" y="464" fill="#FCDCBF" width="39" height="39"/>
	<rect x="78" y="426" fill="#FCDCBF" width="39" height="38"/>
	<rect x="78" y="387" fill="#FCDCBF" width="39" height="39"/>
	<rect x="78" y="348" fill="#FBCEA6" width="39" height="39"/>
	<rect x="78" y="309" fill="#D8A482" width="39" height="39"/>
	<rect x="78" y="271" fill="#FBCEA6" width="39" height="38"/>
	<rect x="78" y="232" fill="#FCDCBF" width="39" height="39"/>
	<rect x="78" y="193" fill="#FCDCBF" width="39" height="39"/>
	<rect x="78" y="155" fill="#FCDCBF" width="39" height="38"/>
	<rect x="78" y="116" fill="#FCDCBF" width="39" height="39"/>
	<rect x="78" y="77" fill="#D8A482" width="39" height="39"/>
	<rect x="39" y="542" fill="#D8A482" width="39" height="38"/>
	<rect x="39" y="503" fill="#D8A482" width="39" height="39"/>
	<rect x="39" y="464" fill="#FBCEA6" width="39" height="39"/>
	<rect x="39" y="426" fill="#FCDCBF" width="39" height="38"/>
	<rect x="39" y="387" fill="#FCDCBF" width="39" height="39"/>
	<rect x="39" y="348" fill="#FBCEA6" width="39" height="39"/>
	<rect x="39" y="309" fill="#D8A482" width="39" height="39"/>
	<rect x="39" y="271" fill="#FCDCBF" width="39" height="38"/>
	<rect x="39" y="232" fill="#FCDCBF" width="39" height="39"/>
	<rect x="39" y="193" fill="#FCDCBF" width="39" height="39"/>
	<rect x="39" y="155" fill="#FCDCBF" width="39" height="38"/>
	<rect x="39" y="116" fill="#FCDCBF" width="39" height="39"/>
	<rect x="39" y="77" fill="#D8A482" width="39" height="39"/>
	<rect y="464" fill="#D8A482" width="39" height="39"/>
	<rect y="426" fill="#D8A482" width="39" height="38"/>
	<rect y="387" fill="#D8A482" width="39" height="39"/>
	<rect y="348" fill="#D8A482" width="39" height="39"/>
	<rect y="309" fill="#D8A482" width="39" height="39"/>
	<rect y="271" fill="#D8A482" width="39" height="38"/>
	<rect y="232" fill="#D8A482" width="39" height="39"/>
	<rect y="193" fill="#D8A482" width="39" height="39"/>
	<rect y="155" fill="#D8A482" width="39" height="38"/>
	<rect y="116" fill="#D8A482" width="39" height="39"/>
</g>
</svg>
