<?xml version="1.0" encoding="utf-8"?>
<!-- Generator: Adobe Illustrator 16.0.0, SVG Export Plug-In . SVG Version: 6.00 Build 0)  -->
<!DOCTYPE svg PUBLIC "-//W3C//DTD SVG 1.1//EN" "http://www.w3.org/Graphics/SVG/1.1/DTD/svg11.dtd">
<svg version="1.1" id="scissors" xmlns="http://www.w3.org/2000/svg" xmlns:xlink="http://www.w3.org/1999/xlink" x="0px" y="0px"
	 width="581px" height="1159px" viewBox="0 0 581 1159" enable-background="new 0 0 581 1159" xml:space="preserve">
<g>
	<rect x="542" y="155" fill="#D8A482" width="39" height="39"/>
	<rect x="542" y="116" fill="#D8A482" width="39" height="39"/>
	<rect x="542" y="78" fill="#D8A482" width="39" height="38"/>
	<rect x="542" y="39" fill="#D8A482" width="39" height="39"/>
	<rect x="504" y="620" fill="#D8A482" width="38" height="38"/>
	<rect x="504" y="581" fill="#D8A482" width="38" height="39"/>
	<rect x="504" y="542" fill="#D8A482" width="38" height="39"/>
	<rect x="504" y="503" fill="#D8A482" width="38" height="39"/>
	<rect x="504" y="465" fill="#D8A482" width="38" height="38"/>
	<rect x="504" y="232" fill="#D8A482" width="38" height="39"/>
	<rect x="504" y="194" fill="#D8A482" width="38" height="38"/>
	<rect x="504" y="155" fill="#FCDCBF" width="38" height="39"/>
	<rect x="504" y="116" fill="#FCDCBF" width="38" height="39"/>
	<rect x="504" y="78" fill="#FCDCBF" width="38" height="38"/>
	<rect x="504" y="39" fill="#FCDCBF" width="38" height="39"/>
	<rect x="504" fill="#D8A482" width="38" height="39"/>
	<rect x="465" y="697" fill="#D8A482" width="39" height="39"/>
	<rect x="465" y="658" fill="#D8A482" width="39" height="39"/>
	<rect x="465" y="620" fill="#FBCEA6" width="39" height="38"/>
	<rect x="465" y="581" fill="#FCDCBF" width="39" height="39"/>
	<rect x="465" y="542" fill="#FCDCBF" width="39" height="39"/>
	<rect x="465" y="503" fill="#FCDCBF" width="39" height="39"/>
	<rect x="465" y="465" fill="#FCDCBF" width="39" height="38"/>
	<rect x="465" y="426" fill="#D8A482" width="39" height="39"/>
	<rect x="465" y="387" fill="#D8A482" width="39" height="39"/>
	<rect x="465" y="349" fill="#D8A482" width="39" height="38"/>
	<rect x="465" y="310" fill="#D8A482" width="39" height="39"/>
	<rect x="465" y="271" fill="#D8A482" width="39" height="39"/>
	<rect x="465" y="232" fill="#FCDCBF" width="39" height="39"/>
	<rect x="465" y="194" fill="#FCDCBF" width="39" height="38"/>
	<rect x="465" y="155" fill="#FCDCBF" width="39" height="39"/>
	<rect x="465" y="116" fill="#FCDCBF" width="39" height="39"/>
	<rect x="465" y="78" fill="#FCDCBF" width="39" height="38"/>
	<rect x="465" y="39" fill="#FCDCBF" width="39" height="39"/>
	<rect x="465" fill="#D8A482" width="39" height="39"/>
	<rect x="426" y="736" fill="#D8A482" width="39" height="38"/>
	<rect x="426" y="697" fill="#FBCEA6" width="39" height="39"/>
	<rect x="426" y="658" fill="#FCDCBF" width="39" height="39"/>
	<rect x="426" y="620" fill="#FCDCBF" width="39" height="38"/>
	<rect x="426" y="581" fill="#FCDCBF" width="39" height="39"/>
	<rect x="426" y="542" fill="#FCDCBF" width="39" height="39"/>
	<rect x="426" y="503" fill="#FCDCBF" width="39" height="39"/>
	<rect x="426" y="465" fill="#FCDCBF" width="39" height="38"/>
	<rect x="426" y="426" fill="#D8A482" width="39" height="39"/>
	<rect x="426" y="387" fill="#FBCEA6" width="39" height="39"/>
	<rect x="426" y="349" fill="#FCDCBF" width="39" height="38"/>
	<rect x="426" y="310" fill="#FCDCBF" width="39" height="39"/>
	<rect x="426" y="271" fill="#FCDCBF" width="39" height="39"/>
	<rect x="426" y="232" fill="#FCDCBF" width="39" height="39"/>
	<rect x="426" y="194" fill="#FCDCBF" width="39" height="38"/>
	<rect x="426" y="155" fill="#FCDCBF" width="39" height="39"/>
	<rect x="426" y="116" fill="#D8A482" width="39" height="39"/>
	<rect x="426" y="78" fill="#D8A482" width="39" height="38"/>
	<rect x="426" y="39" fill="#D8A482" width="39" height="39"/>
	<polygon fill="#D8A482" points="426,1123 388,1123 388,1159 388,1162 426,1162 426,1159 	"/>
	<rect x="388" y="1084" fill="#D8A482" width="38" height="39"/>
	<rect x="388" y="1045" fill="#D8A482" width="38" height="39"/>
	<rect x="388" y="1007" fill="#D8A482" width="38" height="38"/>
	<rect x="388" y="968" fill="#D8A482" width="38" height="39"/>
	<rect x="388" y="929" fill="#D8A482" width="38" height="39"/>
	<rect x="388" y="891" fill="#D8A482" width="38" height="38"/>
	<rect x="388" y="852" fill="#D8A482" width="38" height="39"/>
	<rect x="388" y="813" fill="#D8A482" width="38" height="39"/>
	<rect x="388" y="774" fill="#D8A482" width="38" height="39"/>
	<rect x="388" y="736" fill="#FBCEA6" width="38" height="38"/>
	<rect x="388" y="697" fill="#FCDCBF" width="38" height="39"/>
	<rect x="388" y="658" fill="#FCDCBF" width="38" height="39"/>
	<rect x="388" y="620" fill="#FCDCBF" width="38" height="38"/>
	<rect x="388" y="581" fill="#FBCEA6" width="38" height="39"/>
	<rect x="388" y="542" fill="#D8A482" width="38" height="39"/>
	<rect x="388" y="503" fill="#FCDCBF" width="38" height="39"/>
	<rect x="388" y="465" fill="#FCDCBF" width="38" height="38"/>
	<rect x="388" y="426" fill="#D8A482" width="38" height="39"/>
	<rect x="388" y="387" fill="#FBCEA6" width="38" height="39"/>
	<rect x="388" y="349" fill="#FCDCBF" width="38" height="38"/>
	<rect x="388" y="310" fill="#FCDCBF" width="38" height="39"/>
	<rect x="388" y="271" fill="#FCDCBF" width="38" height="39"/>
	<rect x="388" y="232" fill="#D8A482" width="38" height="39"/>
	<rect x="388" y="194" fill="#D8A482" width="38" height="38"/>
	<rect x="388" y="155" fill="#D8A482" width="38" height="39"/>
	<polygon fill="#FBCEA6" points="388,1123 349,1123 349,1159 349,1162 388,1162 388,1159 	"/>
	<rect x="349" y="1084" fill="#FBCEA6" width="39" height="39"/>
	<rect x="349" y="1045" fill="#FBCEA6" width="39" height="39"/>
	<rect x="349" y="1007" fill="#FBCEA6" width="39" height="38"/>
	<rect x="349" y="968" fill="#FBCEA6" width="39" height="39"/>
	<rect x="349" y="929" fill="#FBCEA6" width="39" height="39"/>
	<rect x="349" y="891" fill="#FBCEA6" width="39" height="38"/>
	<rect x="349" y="852" fill="#FBCEA6" width="39" height="39"/>
	<rect x="349" y="813" fill="#FBCEA6" width="39" height="39"/>
	<rect x="349" y="774" fill="#FBCEA6" width="39" height="39"/>
	<rect x="349" y="736" fill="#FCDCBF" width="39" height="38"/>
	<rect x="349" y="697" fill="#FCDCBF" width="39" height="39"/>
	<rect x="349" y="658" fill="#FCDCBF" width="39" height="39"/>
	<rect x="349" y="620" fill="#FCDCBF" width="39" height="38"/>
	<rect x="349" y="581" fill="#FBCEA6" width="39" height="39"/>
	<rect x="349" y="542" fill="#D8A482" width="39" height="39"/>
	<rect x="349" y="503" fill="#FCDCBF" width="39" height="39"/>
	<rect x="349" y="465" fill="#FCDCBF" width="39" height="38"/>
	<rect x="349" y="426" fill="#D8A482" width="39" height="39"/>
	<rect x="349" y="387" fill="#FBCEA6" width="39" height="39"/>
	<rect x="349" y="349" fill="#FCDCBF" width="39" height="38"/>
	<rect x="349" y="310" fill="#D8A482" width="39" height="39"/>
	<rect x="349" y="271" fill="#D8A482" width="39" height="39"/>
	<rect x="349" y="232" fill="#D8A482" width="39" height="39"/>
	<polygon fill="#FCDCBF" points="349,1123 310,1123 310,1159 310,1162 349,1162 349,1159 	"/>
	<rect x="310" y="1084" fill="#FCDCBF" width="39" height="39"/>
	<rect x="310" y="1045" fill="#FCDCBF" width="39" height="39"/>
	<rect x="310" y="1007" fill="#FCDCBF" width="39" height="38"/>
	<rect x="310" y="968" fill="#FCDCBF" width="39" height="39"/>
	<rect x="310" y="929" fill="#FCDCBF" width="39" height="39"/>
	<rect x="310" y="891" fill="#FCDCBF" width="39" height="38"/>
	<rect x="310" y="852" fill="#FCDCBF" width="39" height="39"/>
	<rect x="310" y="813" fill="#FCDCBF" width="39" height="39"/>
	<rect x="310" y="774" fill="#FBCEA6" width="39" height="39"/>
	<rect x="310" y="736" fill="#FCDCBF" width="39" height="38"/>
	<rect x="310" y="697" fill="#FCDCBF" width="39" height="39"/>
	<rect x="310" y="658" fill="#FCDCBF" width="39" height="39"/>
	<rect x="310" y="620" fill="#FCDCBF" width="39" height="38"/>
	<rect x="310" y="581" fill="#FBCEA6" width="39" height="39"/>
	<rect x="310" y="542" fill="#D8A482" width="39" height="39"/>
	<rect x="310" y="503" fill="#FCDCBF" width="39" height="39"/>
	<rect x="310" y="465" fill="#FCDCBF" width="39" height="38"/>
	<rect x="310" y="426" fill="#D8A482" width="39" height="39"/>
	<rect x="310" y="387" fill="#FBCEA6" width="39" height="39"/>
	<rect x="310" y="349" fill="#FCDCBF" width="39" height="38"/>
	<rect x="310" y="310" fill="#FCDCBF" width="39" height="39"/>
	<rect x="310" y="271" fill="#FCDCBF" width="39" height="39"/>
	<rect x="310" y="232" fill="#FCDCBF" width="39" height="39"/>
	<rect x="310" y="194" fill="#D8A482" width="39" height="38"/>
	<rect x="310" y="155" fill="#D8A482" width="39" height="39"/>
	<rect x="310" y="116" fill="#D8A482" width="39" height="39"/>
	<polygon fill="#FCDCBF" points="310,1123 271,1123 271,1159 271,1162 310,1162 310,1159 	"/>
	<rect x="271" y="1084" fill="#FCDCBF" width="39" height="39"/>
	<rect x="271" y="1045" fill="#FCDCBF" width="39" height="39"/>
	<rect x="271" y="1007" fill="#FCDCBF" width="39" height="38"/>
	<rect x="271" y="968" fill="#FCDCBF" width="39" height="39"/>
	<rect x="271" y="929" fill="#FCDCBF" width="39" height="39"/>
	<rect x="271" y="891" fill="#FCDCBF" width="39" height="38"/>
	<rect x="271" y="852" fill="#FCDCBF" width="39" height="39"/>
	<rect x="271" y="813" fill="#FCDCBF" width="39" height="39"/>
	<rect x="271" y="774" fill="#FBCEA6" width="39" height="39"/>
	<rect x="271" y="736" fill="#FCDCBF" width="39" height="38"/>
	<rect x="271" y="697" fill="#FCDCBF" width="39" height="39"/>
	<rect x="271" y="658" fill="#FCDCBF" width="39" height="39"/>
	<rect x="271" y="620" fill="#FCDCBF" width="39" height="38"/>
	<rect x="271" y="581" fill="#FBCEA6" width="39" height="39"/>
	<rect x="271" y="542" fill="#D8A482" width="39" height="39"/>
	<rect x="271" y="503" fill="#FCDCBF" width="39" height="39"/>
	<rect x="271" y="465" fill="#FCDCBF" width="39" height="38"/>
	<rect x="271" y="426" fill="#D8A482" width="39" height="39"/>
	<rect x="271" y="387" fill="#FBCEA6" width="39" height="39"/>
	<rect x="271" y="349" fill="#FCDCBF" width="39" height="38"/>
	<rect x="271" y="310" fill="#FCDCBF" width="39" height="39"/>
	<rect x="271" y="271" fill="#FCDCBF" width="39" height="39"/>
	<rect x="271" y="232" fill="#FCDCBF" width="39" height="39"/>
	<rect x="271" y="194" fill="#FCDCBF" width="39" height="38"/>
	<rect x="271" y="155" fill="#FCDCBF" width="39" height="39"/>
	<rect x="271" y="116" fill="#FCDCBF" width="39" height="39"/>
	<rect x="271" y="78" fill="#D8A482" width="39" height="38"/>
	<rect x="271" y="39" fill="#D8A482" width="39" height="39"/>
	<polygon fill="#FCDCBF" points="271,1123 233,1123 233,1159 233,1162 271,1162 271,1159 	"/>
	<rect x="233" y="1084" fill="#FCDCBF" width="38" height="39"/>
	<rect x="233" y="1045" fill="#FCDCBF" width="38" height="39"/>
	<rect x="233" y="1007" fill="#FCDCBF" width="38" height="38"/>
	<rect x="233" y="968" fill="#FCDCBF" width="38" height="39"/>
	<rect x="233" y="929" fill="#FCDCBF" width="38" height="39"/>
	<rect x="233" y="891" fill="#FCDCBF" width="38" height="38"/>
	<rect x="233" y="852" fill="#FCDCBF" width="38" height="39"/>
	<rect x="233" y="813" fill="#FCDCBF" width="38" height="39"/>
	<rect x="233" y="774" fill="#FCDCBF" width="38" height="39"/>
	<rect x="233" y="736" fill="#FCDCBF" width="38" height="38"/>
	<rect x="233" y="697" fill="#FCDCBF" width="38" height="39"/>
	<rect x="233" y="658" fill="#FCDCBF" width="38" height="39"/>
	<rect x="233" y="620" fill="#FCDCBF" width="38" height="38"/>
	<rect x="233" y="581" fill="#FCDCBF" width="38" height="39"/>
	<rect x="233" y="542" fill="#FBCEA6" width="38" height="39"/>
	<rect x="233" y="503" fill="#D8A482" width="38" height="39"/>
	<rect x="233" y="465" fill="#D8A482" width="38" height="38"/>
	<rect x="233" y="426" fill="#D8A482" width="38" height="39"/>
	<rect x="233" y="387" fill="#D8A482" width="38" height="39"/>
	<rect x="233" y="349" fill="#D8A482" width="38" height="38"/>
	<rect x="233" y="310" fill="#D8A482" width="38" height="39"/>
	<rect x="233" y="271" fill="#D8A482" width="38" height="39"/>
	<rect x="233" y="232" fill="#D8A482" width="38" height="39"/>
	<rect x="233" y="194" fill="#FCDCBF" width="38" height="38"/>
	<rect x="233" y="155" fill="#FCDCBF" width="38" height="39"/>
	<rect x="233" y="116" fill="#FCDCBF" width="38" height="39"/>
	<rect x="233" y="78" fill="#FCDCBF" width="38" height="38"/>
	<rect x="233" y="39" fill="#FCDCBF" width="38" height="39"/>
	<rect x="233" fill="#D8A482" width="38" height="39"/>
	<polygon fill="#FCDCBF" points="233,1123 194,1123 194,1159 194,1162 233,1162 233,1159 	"/>
	<rect x="194" y="1084" fill="#FCDCBF" width="39" height="39"/>
	<rect x="194" y="1045" fill="#FCDCBF" width="39" height="39"/>
	<rect x="194" y="1007" fill="#FCDCBF" width="39" height="38"/>
	<rect x="194" y="968" fill="#FCDCBF" width="39" height="39"/>
	<rect x="194" y="929" fill="#FCDCBF" width="39" height="39"/>
	<rect x="194" y="891" fill="#FCDCBF" width="39" height="38"/>
	<rect x="194" y="852" fill="#FCDCBF" width="39" height="39"/>
	<rect x="194" y="813" fill="#FCDCBF" width="39" height="39"/>
	<rect x="194" y="774" fill="#FCDCBF" width="39" height="39"/>
	<rect x="194" y="736" fill="#FCDCBF" width="39" height="38"/>
	<rect x="194" y="697" fill="#FCDCBF" width="39" height="39"/>
	<rect x="194" y="658" fill="#FCDCBF" width="39" height="39"/>
	<rect x="194" y="620" fill="#FCDCBF" width="39" height="38"/>
	<rect x="194" y="581" fill="#FCDCBF" width="39" height="39"/>
	<rect x="194" y="542" fill="#FBCEA6" width="39" height="39"/>
	<rect x="194" y="503" fill="#D8A482" width="39" height="39"/>
	<rect x="194" y="465" fill="#FBCEA6" width="39" height="38"/>
	<rect x="194" y="426" fill="#FBCEA6" width="39" height="39"/>
	<rect x="194" y="387" fill="#FCDCBF" width="39" height="39"/>
	<rect x="194" y="349" fill="#FCDCBF" width="39" height="38"/>
	<rect x="194" y="310" fill="#FCDCBF" width="39" height="39"/>
	<rect x="194" y="271" fill="#FCDCBF" width="39" height="39"/>
	<rect x="194" y="232" fill="#D8A482" width="39" height="39"/>
	<rect x="194" y="194" fill="#D8A482" width="39" height="38"/>
	<rect x="194" y="155" fill="#D8A482" width="39" height="39"/>
	<rect x="194" y="116" fill="#D8A482" width="39" height="39"/>
	<rect x="194" y="78" fill="#FCDCBF" width="39" height="38"/>
	<rect x="194" y="39" fill="#FCDCBF" width="39" height="39"/>
	<rect x="194" fill="#D8A482" width="39" height="39"/>
	<polygon fill="#FCDCBF" points="194,1123 155,1123 155,1159 155,1162 194,1162 194,1159 	"/>
	<rect x="155" y="1084" fill="#FCDCBF" width="39" height="39"/>
	<rect x="155" y="1045" fill="#FCDCBF" width="39" height="39"/>
	<rect x="155" y="1007" fill="#FCDCBF" width="39" height="38"/>
	<rect x="155" y="968" fill="#FCDCBF" width="39" height="39"/>
	<rect x="155" y="929" fill="#FCDCBF" width="39" height="39"/>
	<rect x="155" y="891" fill="#FCDCBF" width="39" height="38"/>
	<rect x="155" y="852" fill="#FCDCBF" width="39" height="39"/>
	<rect x="155" y="813" fill="#FCDCBF" width="39" height="39"/>
	<rect x="155" y="774" fill="#FBCEA6" width="39" height="39"/>
	<rect x="155" y="736" fill="#FCDCBF" width="39" height="38"/>
	<rect x="155" y="697" fill="#FCDCBF" width="39" height="39"/>
	<rect x="155" y="658" fill="#FCDCBF" width="39" height="39"/>
	<rect x="155" y="620" fill="#FCDCBF" width="39" height="38"/>
	<rect x="155" y="581" fill="#FCDCBF" width="39" height="39"/>
	<rect x="155" y="542" fill="#FBCEA6" width="39" height="39"/>
	<rect x="155" y="503" fill="#D8A482" width="39" height="39"/>
	<rect x="155" y="465" fill="#FCDCBF" width="39" height="38"/>
	<rect x="155" y="426" fill="#FCDCBF" width="39" height="39"/>
	<rect x="155" y="387" fill="#FCDCBF" width="39" height="39"/>
	<rect x="155" y="349" fill="#FCDCBF" width="39" height="38"/>
	<rect x="155" y="310" fill="#FCDCBF" width="39" height="39"/>
	<rect x="155" y="271" fill="#FCDCBF" width="39" height="39"/>
	<rect x="155" y="232" fill="#D8A482" width="39" height="39"/>
	<rect x="155" y="78" fill="#D8A482" width="39" height="38"/>
	<rect x="155" y="39" fill="#D8A482" width="39" height="39"/>
	<polygon fill="#FBCEA6" points="155,1123 117,1123 117,1159 117,1162 155,1162 155,1159 	"/>
	<rect x="117" y="1084" fill="#FBCEA6" width="38" height="39"/>
	<rect x="117" y="1045" fill="#FBCEA6" width="38" height="39"/>
	<rect x="117" y="1007" fill="#FBCEA6" width="38" height="38"/>
	<rect x="117" y="968" fill="#FBCEA6" width="38" height="39"/>
	<rect x="117" y="929" fill="#FBCEA6" width="38" height="39"/>
	<rect x="117" y="891" fill="#FBCEA6" width="38" height="38"/>
	<rect x="117" y="852" fill="#FBCEA6" width="38" height="39"/>
	<rect x="117" y="813" fill="#FBCEA6" width="38" height="39"/>
	<rect x="117" y="774" fill="#FBCEA6" width="38" height="39"/>
	<rect x="117" y="736" fill="#FCDCBF" width="38" height="38"/>
	<rect x="117" y="697" fill="#FCDCBF" width="38" height="39"/>
	<rect x="117" y="658" fill="#FCDCBF" width="38" height="39"/>
	<rect x="117" y="620" fill="#FCDCBF" width="38" height="38"/>
	<rect x="117" y="581" fill="#FCDCBF" width="38" height="39"/>
	<rect x="117" y="542" fill="#FCDCBF" width="38" height="39"/>
	<rect x="117" y="503" fill="#FBCEA6" width="38" height="39"/>
	<rect x="117" y="465" fill="#D8A482" width="38" height="38"/>
	<rect x="117" y="426" fill="#D8A482" width="38" height="39"/>
	<rect x="117" y="387" fill="#D8A482" width="38" height="39"/>
	<rect x="117" y="349" fill="#D8A482" width="38" height="38"/>
	<rect x="117" y="310" fill="#D8A482" width="38" height="39"/>
	<rect x="117" y="271" fill="#D8A482" width="38" height="39"/>
	<polygon fill="#D8A482" points="117,1123 78,1123 78,1159 78,1162 117,1162 117,1159 	"/>
	<rect x="78" y="1084" fill="#D8A482" width="39" height="39"/>
	<rect x="78" y="1045" fill="#D8A482" width="39" height="39"/>
	<rect x="78" y="1007" fill="#D8A482" width="39" height="38"/>
	<rect x="78" y="968" fill="#D8A482" width="39" height="39"/>
	<rect x="78" y="929" fill="#D8A482" width="39" height="39"/>
	<rect x="78" y="891" fill="#D8A482" width="39" height="38"/>
	<rect x="78" y="852" fill="#D8A482" width="39" height="39"/>
	<rect x="78" y="813" fill="#D8A482" width="39" height="39"/>
	<rect x="78" y="774" fill="#D8A482" width="39" height="39"/>
	<rect x="78" y="736" fill="#FBCEA6" width="39" height="38"/>
	<rect x="78" y="697" fill="#FCDCBF" width="39" height="39"/>
	<rect x="78" y="658" fill="#FCDCBF" width="39" height="39"/>
	<rect x="78" y="620" fill="#FCDCBF" width="39" height="38"/>
	<rect x="78" y="581" fill="#FCDCBF" width="39" height="39"/>
	<rect x="78" y="542" fill="#FBCEA6" width="39" height="39"/>
	<rect x="78" y="503" fill="#D8A482" width="39" height="39"/>
	<rect x="78" y="465" fill="#FBCEA6" width="39" height="38"/>
	<rect x="78" y="426" fill="#FCDCBF" width="39" height="39"/>
	<rect x="78" y="387" fill="#FCDCBF" width="39" height="39"/>
	<rect x="78" y="349" fill="#FCDCBF" width="39" height="38"/>
	<rect x="78" y="310" fill="#FCDCBF" width="39" height="39"/>
	<rect x="78" y="271" fill="#D8A482" width="39" height="39"/>
	<rect x="39" y="736" fill="#D8A482" width="39" height="38"/>
	<rect x="39" y="697" fill="#D8A482" width="39" height="39"/>
	<rect x="39" y="658" fill="#FBCEA6" width="39" height="39"/>
	<rect x="39" y="620" fill="#FCDCBF" width="39" height="38"/>
	<rect x="39" y="581" fill="#FCDCBF" width="39" height="39"/>
	<rect x="39" y="542" fill="#FBCEA6" width="39" height="39"/>
	<rect x="39" y="503" fill="#D8A482" width="39" height="39"/>
	<rect x="39" y="465" fill="#FCDCBF" width="39" height="38"/>
	<rect x="39" y="426" fill="#FCDCBF" width="39" height="39"/>
	<rect x="39" y="387" fill="#FCDCBF" width="39" height="39"/>
	<rect x="39" y="349" fill="#FCDCBF" width="39" height="38"/>
	<rect x="39" y="310" fill="#FCDCBF" width="39" height="39"/>
	<rect x="39" y="271" fill="#D8A482" width="39" height="39"/>
	<rect y="658" fill="#D8A482" width="39" height="39"/>
	<rect y="620" fill="#D8A482" width="39" height="38"/>
	<rect y="581" fill="#D8A482" width="39" height="39"/>
	<rect y="542" fill="#D8A482" width="39" height="39"/>
	<rect y="503" fill="#D8A482" width="39" height="39"/>
	<rect y="465" fill="#D8A482" width="39" height="38"/>
	<rect y="426" fill="#D8A482" width="39" height="39"/>
	<rect y="387" fill="#D8A482" width="39" height="39"/>
	<rect y="349" fill="#D8A482" width="39" height="38"/>
	<rect y="310" fill="#D8A482" width="39" height="39"/>
</g>
</svg>
